<svg width="50" height="50" viewBox="0 0 50 50" fill="none" xmlns="http://www.w3.org/2000/svg">
<circle cx="25" cy="25" r="25" fill="white"/>
<path d="M29 35.0268V31.1568C29.0375 30.68 28.9731 30.2006 28.811 29.7506C28.6489 29.3006 28.3929 28.8902 28.06 28.5468C31.2 28.1968 34.5 27.0068 34.5 21.5468C34.4997 20.1506 33.9627 18.808 33 17.7968C33.4559 16.5753 33.4236 15.2251 32.91 14.0268C32.91 14.0268 31.73 13.6768 29 15.5068C26.708 14.8856 24.292 14.8856 22 15.5068C19.27 13.6768 18.09 14.0268 18.09 14.0268C17.5764 15.2251 17.5441 16.5753 18 17.7968C17.0301 18.8155 16.4925 20.1703 16.5 21.5768C16.5 26.9968 19.8 28.1868 22.94 28.5768C22.611 28.9168 22.3573 29.3222 22.1953 29.7667C22.0334 30.2112 21.9668 30.6849 22 31.1568V35.0268M22 32.0268C17 33.5268 17 29.5268 15 29.0268L22 32.0268Z" stroke="#6B7688" stroke-width="2" stroke-linecap="round" stroke-linejoin="round"/>
</svg>
