<?xml version="1.0" encoding="UTF-8"?>
<svg version="1.1" xmlns="http://www.w3.org/2000/svg" width="512" height="512">
<path d="M0 0 C5.07873554 2.33552736 9.09536177 2.56632276 14.5625 2.375 C25.32279744 2.01517165 33.75300305 4.36873677 42.09765625 11.4609375 C50.2142591 19.10958511 55.37644898 27.7021201 56.3984375 39.0390625 C56.48002141 47.18113654 55.65774794 53.52593414 52.9609375 61.30078125 C50.07593149 70.97182314 52.57198318 82.07414181 54.86328125 91.6640625 C58.62685626 107.75289975 59.08623565 124.76677229 53.0625 140.3125 C52.62679687 141.51777344 52.19109375 142.72304687 51.7421875 143.96484375 C41.00078066 172.88804656 41.00078066 172.88804656 29.5625 179.625 C23.78443033 182.25447311 17.30913603 182.64572424 11.0625 183.3125 C11.65417969 183.97378906 12.24585938 184.63507813 12.85546875 185.31640625 C14.63736407 187.73536857 15.60600157 189.38202713 16.67578125 192.08984375 C19.89341631 200.63563906 19.89341631 200.63563906 26.53125 206.4453125 C29.08316356 207.48451756 31.68837015 208.30544864 34.3203125 209.1171875 C45.06382191 212.54883038 53.19004149 220.56410602 61.0625 228.3125 C61.75601563 228.98152344 62.44953125 229.65054688 63.1640625 230.33984375 C71.16521514 238.67584639 74.74339391 249.95138808 76.9375 261.0625 C77.17597656 262.22096436 77.41445312 263.37942871 77.66015625 264.57299805 C81.53702112 284.02251078 84.49955115 303.65630865 87.57958984 323.24395752 C88.05246215 326.24871679 88.52784154 329.25306926 89.00390625 332.25732422 C89.72963946 336.84181214 90.45006778 341.42709656 91.16503906 346.01327515 C91.42781439 347.69865687 91.69147121 349.38390143 91.95605469 351.06900024 C92.31849262 353.38393859 92.67573984 355.69961395 93.03125 358.015625 C93.23169922 359.31145508 93.43214844 360.60728516 93.63867188 361.94238281 C93.99642348 364.78708506 94.15268778 367.45245429 94.0625 370.3125 C94.784375 370.60125 95.50625 370.89 96.25 371.1875 C98.85416667 372.22916667 101.45833333 373.27083333 104.0625 374.3125 C104.193647 373.2771109 104.32479401 372.2417218 104.45991516 371.17495728 C105.69582451 361.43166029 106.9458179 351.69026114 108.20972919 341.9505558 C108.85911017 336.94285192 109.50346025 331.93460591 110.13647461 326.92480469 C110.74721445 322.09275718 111.37095727 317.26255304 112.0038662 312.43336105 C112.24337725 310.58792465 112.47814553 308.74186647 112.70815468 306.89522171 C113.03039847 304.31458567 113.36922994 301.73664826 113.7121582 299.15869141 C113.8042305 298.38977066 113.8963028 297.62084991 113.99116516 296.82862854 C114.28413391 294.70401001 114.28413391 294.70401001 115.0625 291.3125 C118.65950175 288.91449883 121.23552416 289.02954566 125.38842773 289.05180359 C126.14024795 289.04797804 126.89206816 289.04415249 127.6666708 289.04021102 C130.19321564 289.0298682 132.71953378 289.03387554 135.24609375 289.0378418 C137.05445568 289.03349607 138.86281576 289.02831339 140.6711731 289.02235413 C145.5884161 289.00893892 150.50558237 289.00838818 155.42284012 289.01091743 C159.52350582 289.01198528 163.62415587 289.00710861 167.72481823 289.002312 C177.3956589 288.99120841 187.06646073 288.99078441 196.73730469 288.99682617 C206.72516116 289.00286985 216.71287689 288.99054688 226.70070934 288.9692561 C235.26720931 288.95166436 243.83366439 288.94563484 252.40018177 288.94889385 C257.52047869 288.95071049 262.64067519 288.94803252 267.76095581 288.93417931 C272.57410894 288.92164474 277.38704192 288.92350341 282.2001915 288.93659019 C283.96952258 288.93896498 285.73886895 288.93618923 287.50818253 288.92796707 C289.91790465 288.91757383 292.32687783 288.92553964 294.73657227 288.9382782 C295.44172187 288.93090391 296.14687147 288.92352963 296.87338924 288.91593188 C299.65529381 288.94701065 301.63733274 289.04905184 304.03169346 290.53267956 C305.44046426 292.96510404 305.23015955 294.38554373 304.8813324 297.16384888 C304.76191725 298.14770695 304.6425021 299.13156502 304.51946831 300.14523697 C303.72222333 305.67096927 302.87726522 311.18349751 301.96118164 316.69091797 C301.74966965 317.98171768 301.53815765 319.2725174 301.32023621 320.60243225 C300.7454295 324.10883047 300.16562267 327.61438361 299.58452916 331.11974478 C299.09843238 334.05473547 298.61475117 336.99012227 298.13102716 339.9255048 C296.99017651 346.84807938 295.84516039 353.76995601 294.69750977 360.69140625 C293.51521148 367.82227736 292.34005588 374.95429993 291.16835123 382.08691871 C290.15927369 388.22798022 289.14577457 394.36830082 288.12873167 400.50804818 C287.52251791 404.16795682 286.91797609 407.82812139 286.31770515 411.48900986 C285.64931765 415.56390852 284.97171293 419.63722217 284.29321289 423.71044922 C284.09625824 424.91883957 283.89930359 426.12722992 283.69638062 427.37223816 C283.41675728 429.03732674 283.41675728 429.03732674 283.13148499 430.73605347 C282.97239182 431.69794523 282.81329866 432.659837 282.6493845 433.650877 C281.21388535 440.16111465 281.21388535 440.16111465 279.0625 442.3125 C277.48817708 442.40681189 275.9095951 442.43069965 274.33245373 442.42716789 C273.30271157 442.42730884 272.27296942 442.4274498 271.21202296 442.42759502 C270.06675067 442.42263582 268.92147837 442.41767662 267.74150085 442.41256714 C265.93225442 442.41067373 265.93225442 442.41067373 264.08645755 442.40874207 C260.72227486 442.40427433 257.35815592 442.39532039 253.99399078 442.38458848 C250.3704048 442.37413892 246.74681134 442.36948023 243.12321472 442.36425781 C236.83340853 442.3545239 230.54361627 442.34147228 224.25382042 442.32653427 C214.28639285 442.3031593 204.31896424 442.29015655 194.35151672 442.27883911 C190.93848318 442.27483673 187.52544971 442.27076801 184.11241627 442.26667976 C182.83254265 442.26515092 182.83254265 442.26515092 181.526813 442.26359119 C171.80164557 442.25183526 162.07648156 442.23796559 152.35131836 442.22314453 C151.46204412 442.2217921 150.57276988 442.22043967 149.65654794 442.21904625 C135.31335771 442.19696639 120.97019157 442.16710571 106.62702038 442.13517712 C91.87341809 442.10261913 77.11982817 442.08186332 62.36619407 442.07090485 C53.28613402 442.06373162 44.20619205 442.0472016 35.12617532 442.01810409 C28.87414056 441.99888829 22.62215192 441.99102389 16.370088 441.99150907 C12.77978903 441.99144695 9.18967394 441.98684105 5.59941864 441.96834183 C-10.78563332 441.88752704 -26.78306595 442.62411876 -43.05263042 444.62875557 C-50.19341058 445.50390409 -57.24145931 445.77722361 -64.4375 445.6875 C-65.68104248 445.67807373 -66.92458496 445.66864746 -68.20581055 445.65893555 C-86.89806662 445.35547806 -112.5221159 443.82241748 -126.4765625 429.76171875 C-139.05698126 414.34886652 -135.15870885 384.39373125 -134.6875 365.75 C-134.6654953 364.79925598 -134.6434906 363.84851196 -134.62081909 362.86895752 C-134.19792199 344.96257975 -133.39603831 327.07574179 -132.5 309.1875 C-132.43864868 307.94144989 -132.37729736 306.69539978 -132.31408691 305.41159058 C-131.72582491 293.61136277 -131.09228352 281.82354402 -129.9453125 270.0625 C-129.87014908 269.28147919 -129.79498566 268.50045837 -129.71754456 267.69577026 C-127.61122967 247.60670052 -119.55757186 231.23847473 -104.34765625 218.0703125 C-94.57522958 210.51688797 -76.76817147 199.3125 -63.9375 199.3125 C-63.66550781 198.45011719 -63.39351563 197.58773437 -63.11328125 196.69921875 C-61.96262253 193.3848629 -60.64360207 190.28641698 -59.125 187.125 C-58.40376953 185.58779297 -58.40376953 185.58779297 -57.66796875 184.01953125 C-55.73645761 180.99800254 -54.1584 179.82181063 -50.9375 178.3125 C-50.2775 178.3125 -49.6175 178.3125 -48.9375 178.3125 C-47.52955218 161.84823068 -47.52955218 161.84823068 -51.06738281 146.18554688 C-54.30859253 142.77587511 -58.7307428 141.22548657 -62.9375 139.3125 C-65.1999706 137.61564705 -67.22124386 135.71694171 -69.25 133.75 C-69.99866333 133.04061279 -69.99866333 133.04061279 -70.76245117 132.31689453 C-72.16029985 130.98855471 -73.54915036 129.65076487 -74.9375 128.3125 C-76.01451172 127.33023438 -76.01451172 127.33023438 -77.11328125 126.328125 C-91.43648408 112.89474038 -102.43235522 93.48023882 -103.21484375 73.6875 C-103.72556501 51.77119531 -99.38656141 32.64436492 -83.9375 16.3125 C-63.21205752 -4.95732558 -27.27413665 -13.11543183 0 0 Z " fill="#E63F46" transform="translate(170.9375,36.6875)"/>
<path d="M0 0 C0.75182021 -0.00382555 1.50364042 -0.00765109 2.27824306 -0.01159257 C4.80478791 -0.02193539 7.33110604 -0.01792805 9.85766602 -0.01396179 C11.66602794 -0.01830752 13.47438803 -0.0234902 15.28274536 -0.02944946 C20.19998837 -0.04286467 25.11715464 -0.04341541 30.03441238 -0.04088616 C34.13507808 -0.03981831 38.23572814 -0.04469498 42.3363905 -0.04949158 C52.00723116 -0.06059518 61.67803299 -0.06101918 71.34887695 -0.05497742 C81.33673342 -0.04893374 91.32444916 -0.06125671 101.31228161 -0.08254749 C109.87878158 -0.10013923 118.44523666 -0.10616875 127.01175404 -0.10290974 C132.13205095 -0.1010931 137.25224745 -0.10377107 142.37252808 -0.11762428 C147.18568121 -0.13015885 151.99861419 -0.12830018 156.81176376 -0.11521339 C158.58109485 -0.11283861 160.35044122 -0.11561436 162.11975479 -0.12383652 C164.52947691 -0.13422976 166.9384501 -0.12626395 169.34814453 -0.11352539 C170.05329413 -0.12089968 170.75844374 -0.12827396 171.48496151 -0.13587171 C174.26686607 -0.10479294 176.248905 -0.00275175 178.64326572 1.48087597 C180.05203653 3.91330046 179.84173182 5.33374014 179.49290466 8.11204529 C179.31378194 9.58783239 179.31378194 9.58783239 179.13104057 11.09343338 C178.3337956 16.61916568 177.48883748 22.13169392 176.57275391 27.63911438 C176.36124191 28.92991409 176.14972992 30.22071381 175.93180847 31.55062866 C175.35700177 35.05702688 174.77719493 38.56258002 174.19610143 42.06794119 C173.71000464 45.00293188 173.22632344 47.93831868 172.74259943 50.87370121 C171.60174877 57.79627579 170.45673266 64.71815242 169.30908203 71.63960266 C168.12678374 78.77047377 166.95162815 85.90249634 165.7799235 93.03511512 C164.77084595 99.17617663 163.75734684 105.31649723 162.74030393 111.45624459 C162.13409017 115.11615323 161.52954836 118.7763178 160.92927742 122.43720627 C160.26088991 126.51210493 159.5832852 130.58541858 158.90478516 134.65864563 C158.70783051 135.86703598 158.51087585 137.07542633 158.30795288 138.32043457 C158.12153732 139.43049362 157.93512177 140.54055267 157.74305725 141.68424988 C157.58396409 142.64614164 157.42487093 143.60803341 157.26095676 144.59907341 C155.82545761 151.10931106 155.82545761 151.10931106 153.67407227 153.26069641 C152.0945871 153.35770642 150.51074408 153.38441279 148.92828274 153.38374424 C147.8952066 153.38573529 146.86213046 153.38772634 145.79774898 153.38977772 C144.64894113 153.38686488 143.50013327 153.38395204 142.31651306 153.38095093 C141.10692714 153.38180535 139.89734121 153.38265978 138.65110117 153.38354009 C135.27847327 153.38490831 131.90590269 153.38176072 128.53328168 153.37676203 C124.90204514 153.37246093 121.27081051 153.37390371 117.63957214 153.37466431 C111.34316014 153.37518976 105.04675845 153.37204075 98.75034904 153.36642647 C89.64669385 153.35831433 80.54304366 153.35569654 71.43938524 153.35443848 C56.67085035 153.3522475 41.90232096 153.3455862 27.13378906 153.33613586 C12.78385445 153.32696291 -1.56607867 153.31988151 -15.91601562 153.31562805 C-17.24184758 153.31523397 -17.24184758 153.31523397 -18.59446401 153.31483192 C-23.02847846 153.31352692 -27.46249292 153.31226321 -31.89650738 153.31102002 C-68.70631806 153.300646 -105.51612247 153.28302646 -142.32592773 153.26069641 C-143.70717791 150.49819606 -143.5167208 148.31338542 -143.32592773 145.26069641 C-141.02125902 142.9560277 -140.4018052 142.9456833 -137.272995 142.66574097 C-136.06065721 142.55550441 -136.06065721 142.55550441 -134.82382774 142.44304085 C-130.94169013 142.15964832 -127.06175434 141.94503566 -123.17285156 141.77998352 C-122.3064505 141.74082321 -121.44004944 141.7016629 -120.5473938 141.66131592 C-117.70937393 141.53387249 -114.8711851 141.41079793 -112.03295898 141.28804016 C-110.03911074 141.19996267 -108.04527033 141.11170787 -106.05143738 141.02328491 C-101.87991539 140.83898319 -97.70830563 140.6568564 -93.53662109 140.47627258 C-88.22563618 140.24619345 -82.9149093 140.01067498 -77.60423756 139.77348995 C-73.48703122 139.59023129 -69.36969912 139.40993313 -65.25232506 139.23048592 C-63.29613975 139.1448791 -61.33999336 139.05837758 -59.38389015 138.97091484 C-48.68894157 138.49443347 -38.03391662 138.12475563 -27.32592773 138.26069641 C-27.24918823 137.20916885 -27.24918823 137.20916885 -27.17089844 136.13639832 C-26.54391224 128.05701389 -25.58272363 120.05003322 -24.51342773 112.01850891 C-24.15130398 109.26251286 -23.79137833 106.50623075 -23.43139648 103.74995422 C-23.33946014 103.04788031 -23.2475238 102.34580639 -23.15280151 101.6224575 C-22.17878189 94.16985874 -21.25001871 86.71180985 -20.32592773 79.25288391 C-20.15955381 77.91321723 -19.99313113 76.5735566 -19.82666016 75.23390198 C-19.15819866 69.85256283 -18.49077867 64.47109619 -17.82592773 59.08930969 C-16.84285364 51.13625345 -15.84575449 43.18516817 -14.83032227 35.23616028 C-14.48385223 32.51759137 -14.14445513 29.79825112 -13.80981445 27.07820129 C-13.30945143 23.01462599 -12.78717986 18.95413611 -12.26342773 14.89350891 C-12.11325195 13.65011749 -11.96307617 12.40672607 -11.80834961 11.12565613 C-11.65817383 9.98831024 -11.50799805 8.85096436 -11.35327148 7.67915344 C-11.16365845 6.1767662 -11.16365845 6.1767662 -10.97021484 4.64402771 C-9.50483991 -0.77665182 -4.63051885 -0.02481775 0 0 Z " fill="#287DEE" transform="translate(296.325927734375,325.7393035888672)"/>
<path d="M0 0 C0.7430964 -0.00694553 1.4861928 -0.01389106 2.25180727 -0.02104706 C4.74317328 -0.03935152 7.23359074 -0.02904369 9.72499084 -0.01878357 C11.51055617 -0.02584035 13.29611551 -0.03458434 15.08166504 -0.04489136 C19.93294659 -0.06742266 24.78390247 -0.06443685 29.63521647 -0.05556989 C33.68356821 -0.05046521 37.73185847 -0.05774836 41.78020388 -0.06504196 C51.32988789 -0.08205297 60.87941215 -0.07846315 70.42909241 -0.06175232 C80.2846861 -0.0448293 90.13983694 -0.06066532 99.99538225 -0.0929752 C108.45410313 -0.11965638 116.91268602 -0.12695109 125.37144476 -0.11846012 C130.42478198 -0.11352665 135.47785268 -0.11576919 140.53115654 -0.13624763 C145.28292049 -0.15458163 150.03404662 -0.14867409 154.78577614 -0.12404823 C156.53007564 -0.11903307 158.27442354 -0.12254839 160.01868439 -0.13519669 C162.39966692 -0.15109668 164.77854125 -0.13620821 167.15942383 -0.11352539 C168.19571368 -0.13127898 168.19571368 -0.13127898 169.25293869 -0.14939123 C172.90876111 -0.078596 174.60290506 0.48491094 177.57167816 2.67677402 C179.97711904 5.97211149 180.26914028 7.51201131 180.27139282 11.54908752 C180.28404678 12.76037323 180.29670074 13.97165894 180.30973816 15.21965027 C180.29842297 16.55366945 180.28659554 17.88768437 180.27430725 19.22169495 C180.27944789 20.63303018 180.28673027 22.044359 180.29598999 23.45567322 C180.31449436 27.28227924 180.30157217 31.10818793 180.28189969 34.93476486 C180.26550358 38.94163055 180.27432742 42.94845241 180.27941895 46.95533752 C180.28393885 53.68388496 180.26807667 60.41215432 180.24012756 67.14064026 C180.20807595 74.91666207 180.20809162 82.69218236 180.22534233 90.46823978 C180.24121322 97.95247745 180.2344703 105.43653146 180.21740532 112.92076111 C180.21053766 116.10409949 180.21156428 119.28729054 180.21895027 122.47062683 C180.22661881 126.220235 180.21446925 129.96927331 180.18710136 133.71878433 C180.18022228 135.0937951 180.18011454 136.46885914 180.18731689 137.84386826 C180.19602318 139.72266427 180.17760315 141.60152734 180.15786743 143.48023987 C180.15506051 144.53104233 180.15225359 145.58184479 180.14936161 146.66448975 C179.50621779 150.28603129 178.24615937 151.94983402 175.64320374 154.5146637 C172.18868221 156.05214136 168.27913834 155.64349815 164.55215454 155.64837646 C163.83764301 155.65064202 163.12313147 155.65290758 162.38696808 155.65524179 C159.9926272 155.66157221 157.59834307 155.66075304 155.20399475 155.65992737 C153.48740058 155.66291943 151.77080709 155.66632206 150.05421448 155.67010498 C145.39103761 155.6789437 140.72787908 155.68128302 136.06469464 155.68192077 C132.17293921 155.68287007 128.28118806 155.68654856 124.38943428 155.69009286 C115.20896655 155.69823668 106.02850864 155.70067714 96.84803772 155.69996643 C87.37430502 155.69936541 77.90062923 155.70992217 68.42691094 155.72571009 C60.2951819 155.73877925 52.16347148 155.7441506 44.03173202 155.74351102 C39.17409416 155.74325588 34.31650688 155.746116 29.45887947 155.75668907 C24.89116153 155.76635972 20.32354263 155.76645634 15.75582123 155.75917244 C14.07924442 155.75812536 12.40266147 155.76049678 10.7260952 155.7665329 C8.43769206 155.77423836 6.1496322 155.76961776 3.86123657 155.76190186 C2.58053063 155.76244662 1.2998247 155.76299139 -0.01969051 155.76355267 C-4.08692914 155.46020872 -6.82053614 154.59513605 -10.14506626 152.25694942 C-11.91836389 149.70721381 -11.7374571 147.72521999 -11.74447632 144.63809204 C-11.75438095 143.4112822 -11.76428558 142.18447235 -11.77449036 140.92048645 C-11.7702521 139.55873008 -11.76569422 138.19697468 -11.760849 136.83522034 C-11.76655047 135.40285712 -11.77351387 133.97049845 -11.78164673 132.53814697 C-11.79961855 128.64555291 -11.79840222 124.75318378 -11.79270434 120.86056066 C-11.78961813 117.61244655 -11.79569863 114.36437601 -11.80174309 111.1162681 C-11.81580005 103.45418942 -11.81421747 95.79222221 -11.80284119 88.13014221 C-11.79135967 80.22238496 -11.80543336 72.31496683 -11.83223766 64.40725428 C-11.85438121 57.62075123 -11.86103507 50.83435474 -11.85516125 44.04781812 C-11.8517871 39.9932938 -11.85423681 35.93898687 -11.87141228 31.88449287 C-11.886858 28.07176257 -11.88295284 24.25953528 -11.86410713 20.44682503 C-11.86041453 19.04719134 -11.86354932 17.64752058 -11.87399292 16.24792099 C-11.88715639 14.33805825 -11.87327598 12.42806602 -11.85800171 10.51821899 C-11.85779243 9.44914842 -11.85758314 8.38007784 -11.85736752 7.27861118 C-11.35679626 4.5146637 -11.35679626 4.5146637 -9.78527069 2.17160797 C-6.54929673 -0.03629196 -3.78489086 -0.04500191 0 0 Z " fill="#EDEEEE" transform="translate(279.35679626464844,101.48533630371094)"/>
<path d="M0 0 C5.07873554 2.33552736 9.09536177 2.56632276 14.5625 2.375 C25.32279744 2.01517165 33.75300305 4.36873677 42.09765625 11.4609375 C50.2142591 19.10958511 55.37644898 27.7021201 56.3984375 39.0390625 C56.48002141 47.18113654 55.65774794 53.52593414 52.9609375 61.30078125 C50.07593149 70.97182314 52.57198318 82.07414181 54.86328125 91.6640625 C58.62685626 107.75289975 59.08623565 124.76677229 53.0625 140.3125 C52.62679687 141.51777344 52.19109375 142.72304687 51.7421875 143.96484375 C40.45028792 174.37034895 40.45028792 174.37034895 26.9921875 180.5859375 C22.6640532 182.21555892 19.01739729 182.39567845 14.375 182.3125 C12.2711665 182.27505691 10.16614296 182.26555678 8.0625 182.3125 C6.34798875 184.02701125 6.68501417 186.52937151 6.4375 188.875 C4.76430682 200.21275674 -0.1364198 211.80741988 -7.9375 220.3125 C-8.58976562 221.04339844 -9.24203125 221.77429688 -9.9140625 222.52734375 C-15.90064171 228.90630175 -15.90064171 228.90630175 -20.9375 229.3125 C-33.37354322 223.23908354 -41.74733059 209.94163579 -46.3059082 197.32177734 C-47.25711456 194.29571305 -47.69484401 191.33597223 -48.0625 188.1875 C-48.14975342 187.49591797 -48.23700684 186.80433594 -48.3269043 186.09179688 C-48.88894303 180.98450521 -48.93442469 175.98806134 -48.82421875 170.8515625 C-47.70019995 156.90052364 -47.70019995 156.90052364 -52.46875 144.76953125 C-55.85173565 142.55850849 -59.26287461 140.98350422 -62.9375 139.3125 C-65.1999706 137.61564705 -67.22124386 135.71694171 -69.25 133.75 C-69.74910889 133.2770752 -70.24821777 132.80415039 -70.76245117 132.31689453 C-72.16029985 130.98855471 -73.54915036 129.65076487 -74.9375 128.3125 C-75.65550781 127.65765625 -76.37351562 127.0028125 -77.11328125 126.328125 C-91.43648408 112.89474038 -102.43235522 93.48023882 -103.21484375 73.6875 C-103.72556501 51.77119531 -99.38656141 32.64436492 -83.9375 16.3125 C-63.21205752 -4.95732558 -27.27413665 -13.11543183 0 0 Z " fill="#F2B291" transform="translate(170.9375,36.6875)"/>
<path d="M0 0 C5.07873554 2.33552736 9.09536177 2.56632276 14.5625 2.375 C25.32279744 2.01517165 33.75300305 4.36873677 42.09765625 11.4609375 C50.2142591 19.10958511 55.37644898 27.7021201 56.3984375 39.0390625 C56.49100043 48.27684312 55.40558961 55.59658781 52.0625 64.3125 C51.4025 64.3125 50.7425 64.3125 50.0625 64.3125 C49.56621094 63.26191406 49.06992188 62.21132812 48.55859375 61.12890625 C44.7577534 53.21701059 41.0279648 45.84791366 35.0625 39.3125 C34.36253906 38.54421875 33.66257813 37.7759375 32.94140625 36.984375 C24.43716745 27.79194145 24.43716745 27.79194145 13.0625 23.75 C3.9288472 24.56388985 -4.34088116 28.62633663 -10.7421875 35.15234375 C-15.90027477 41.72474527 -18.66956251 49.53621867 -21.56640625 57.29296875 C-25.7553689 68.2427939 -32.57468875 77.42275304 -43.3125 82.6875 C-48.05969754 84.58145964 -52.81339568 85.5770837 -57.9375 85.3125 C-59.95402194 84.3462499 -61.95429982 83.34541676 -63.9375 82.3125 C-68.05123849 81.65619633 -72.06156562 81.34377979 -75.84375 83.296875 C-79.74767316 86.39704928 -81.70878995 89.32591383 -82.2734375 94.23046875 C-82.36691076 102.05418069 -81.98534152 108.90749599 -76.4765625 114.90234375 C-72.41087738 118.46239798 -68.79428937 120.59917878 -63.375 120.5625 C-62.22837891 120.57023437 -62.22837891 120.57023437 -61.05859375 120.578125 C-58.63767238 120.4354561 -58.63767238 120.4354561 -55.9375 118.3125 C-54.9475 118.3125 -53.9575 118.3125 -52.9375 118.3125 C-52.09420007 122.1853998 -51.26464001 126.06111953 -50.4375 129.9375 C-50.19902344 131.03191406 -49.96054688 132.12632812 -49.71484375 133.25390625 C-49.48925781 134.31738281 -49.26367188 135.38085938 -49.03125 136.4765625 C-48.82177734 137.45061035 -48.61230469 138.4246582 -48.39648438 139.42822266 C-47.91773811 142.43668453 -47.85861229 145.27137878 -47.9375 148.3125 C-58.05893299 144.69640455 -66.24655746 136.57755973 -73.9375 129.3125 C-74.68773438 128.62671875 -75.43796875 127.9409375 -76.2109375 127.234375 C-90.86850936 113.34825429 -102.40513073 94.16887168 -103.21484375 73.6875 C-103.72556501 51.77119531 -99.38656141 32.64436492 -83.9375 16.3125 C-63.21205752 -4.95732558 -27.27413665 -13.11543183 0 0 Z " fill="#2D1929" transform="translate(170.9375,36.6875)"/>
<path d="M0 0 C1.03963594 0.01236115 1.03963594 0.01236115 2.10027462 0.02497202 C2.84337102 0.01802649 3.58646742 0.01108096 4.35208189 0.00392497 C6.84344791 -0.0143795 9.33386536 -0.00407167 11.82526547 0.00618845 C13.61083079 -0.00086832 15.39639014 -0.00961232 17.18193966 -0.01991934 C22.03322121 -0.04245064 26.8841771 -0.03946483 31.7354911 -0.03059787 C35.78384284 -0.02549319 39.83213309 -0.03277633 43.8804785 -0.04006994 C53.43016251 -0.05708095 62.97968677 -0.05349113 72.52936703 -0.0367803 C82.38496072 -0.01985728 92.24011156 -0.0356933 102.09565687 -0.06800318 C110.55437775 -0.09468436 119.01296065 -0.10197907 127.47171938 -0.0934881 C132.5250566 -0.08855463 137.57812731 -0.09079716 142.63143116 -0.11127561 C147.38319511 -0.1296096 152.13432125 -0.12370207 156.88605076 -0.09907621 C158.63035026 -0.09406105 160.37469816 -0.09757637 162.11895901 -0.11022466 C164.49994154 -0.12612465 166.87881587 -0.11123618 169.25969845 -0.08855337 C170.29598831 -0.10630696 170.29598831 -0.10630696 171.35321331 -0.12441921 C177.06665724 -0.01377801 177.17935163 0.97550899 181.74347836 5.53963572 C181.74347836 11.14963572 181.74347836 16.75963572 181.74347836 22.53963572 C118.71347836 22.53963572 55.68347836 22.53963572 -9.25652164 22.53963572 C-9.25652164 0.16007165 -9.25652164 0.16007165 0 0 Z " fill="#40C2D5" transform="translate(277.2565216422081,101.4603642821312)"/>
<path d="M0 0 C1.29357422 -0.02416992 1.29357422 -0.02416992 2.61328125 -0.04882812 C7.44340379 -0.05254933 10.74536653 0.12847548 14.625 3.3125 C21.12456131 10.17704748 29.3825059 20.88640641 29.75 30.625 C29.70875 31.511875 29.6675 32.39875 29.625 33.3125 C25.34936721 32.83742969 23.45939503 30.35947466 20.625 27.3125 C19.861875 26.549375 19.09875 25.78625 18.3125 25 C17.755625 24.443125 17.19875 23.88625 16.625 23.3125 C17.12 24.385 17.615 25.4575 18.125 26.5625 C19.51153911 29.56666808 19.625 30.77184895 19.625 34.3125 C15.7254339 35.61235537 11.9120278 35.66114568 7.83984375 35.84765625 C6.95879974 35.89072403 6.07775574 35.93379181 5.17001343 35.97816467 C2.301069 36.115893 -0.56814747 36.24607181 -3.4375 36.375 C-4.40620026 36.41985535 -5.37490051 36.46471069 -6.37295532 36.51092529 C-21.7185308 37.21575512 -37.01224477 37.59858483 -52.375 37.3125 C-53.15854088 29.93847003 -53.53184261 22.66402154 -53.5 15.25 C-53.50386719 14.31478516 -53.50773438 13.37957031 -53.51171875 12.41601562 C-53.51042969 11.52462891 -53.50914062 10.63324219 -53.5078125 9.71484375 C-53.50668457 8.91554443 -53.50555664 8.11624512 -53.50439453 7.29272461 C-53.375 5.3125 -53.375 5.3125 -52.375 3.3125 C-51.49352295 3.29268066 -50.6120459 3.27286133 -49.70385742 3.25244141 C-46.38053707 3.17355858 -43.05760052 3.08684786 -39.73461914 2.99511719 C-38.30631152 2.95723019 -36.87792147 2.92231351 -35.44946289 2.890625 C-27.79336737 2.71875895 -20.43335548 2.30395438 -12.90649414 0.7578125 C-8.61113487 0.00222032 -4.35072984 -0.01670787 0 0 Z " fill="#F4B191" transform="translate(216.375,430.6875)"/>
<path d="M0 0 C5.03929609 3.68755358 8.53257084 8.1508713 9.8203125 14.33203125 C10.52073512 20.51909776 8.85776187 25.0438817 5.8203125 30.33203125 C1.88151877 35.25552341 -3.15113214 38.63478128 -9.4140625 39.71875 C-15.972166 40.04665517 -20.84398416 37.96509198 -25.94140625 33.94140625 C-31.18022571 29.12118496 -32.27340608 24.47369827 -32.6171875 17.45703125 C-32.49953379 11.52287234 -31.2199323 7.69549563 -27.1796875 3.33203125 C-19.49185874 -3.53210157 -9.20196912 -5.2715734 0 0 Z " fill="#2A7FEF" transform="translate(390.1796875,384.66796875)"/>
<path d="M0 0 C9.19510193 8.11332524 13.56118004 19.05022751 15 31 C15.05803712 33.81598935 15.07023101 36.6003909 15.02172852 39.41381836 C15.01212097 40.2243869 15.00251343 41.03495544 14.99261475 41.87008667 C14.95985622 44.52676729 14.91943718 47.18327132 14.87890625 49.83984375 C14.85458246 51.69071343 14.83074006 53.5415895 14.80735779 55.39247131 C14.74474157 60.24715486 14.67561212 65.10172437 14.60510254 69.95629883 C14.53421535 74.91677692 14.46952067 79.87733541 14.40429688 84.83789062 C14.27557437 94.55868212 14.13996737 104.27936436 14 114 C14.60984741 114.17591171 15.21969482 114.35182343 15.84802246 114.5330658 C21.87731659 116.30258435 27.77378176 118.29834318 33.65625 120.50390625 C34.52519897 120.82785873 35.39414795 121.15181122 36.28942871 121.48558044 C38.10503897 122.16375646 39.9200167 122.84362815 41.734375 123.52514648 C44.5184737 124.56942927 47.30597384 125.60425248 50.09375 126.63867188 C51.8647964 127.30151433 53.63563742 127.96490583 55.40625 128.62890625 C56.23950806 128.93727921 57.07276611 129.24565216 57.93127441 129.56336975 C58.69967651 129.85384689 59.46807861 130.14432404 60.25976562 130.44360352 C60.93575806 130.69658707 61.61175049 130.94957062 62.30822754 131.21022034 C64 132 64 132 66 134 C64.02 133.67 62.04 133.34 60 133 C60.00523682 133.69561035 60.01047363 134.3912207 60.01586914 135.10791016 C60.03674337 138.28026413 60.04969332 141.45260361 60.0625 144.625 C60.07087891 145.71941406 60.07925781 146.81382812 60.08789062 147.94140625 C60.09111328 149.00488281 60.09433594 150.06835938 60.09765625 151.1640625 C60.10289307 152.13811035 60.10812988 153.1121582 60.11352539 154.11572266 C59.99414506 157.14875321 59.55866724 160.01915268 59 163 C55.03590792 157.05386188 55.71092824 149.57276686 55.4375 142.625 C55.37272461 141.09166016 55.37272461 141.09166016 55.30664062 139.52734375 C55.20112208 137.01834712 55.09900787 134.50926057 55 132 C54.21463867 131.83395264 53.42927734 131.66790527 52.62011719 131.49682617 C48.99626432 130.72929989 45.37313276 129.95841809 41.75 129.1875 C40.51507813 128.92646484 39.28015625 128.66542969 38.0078125 128.39648438 C31.18450358 126.94204221 24.42180236 125.38841223 17.69238281 123.54418945 C13.18737656 122.63362916 10.05709321 122.4382072 5.95703125 124.6171875 C4.91933594 125.36226563 3.88164063 126.10734375 2.8125 126.875 C2.25731689 127.27195068 1.70213379 127.66890137 1.13012695 128.07788086 C-4.63371864 132.2902688 -9.85428987 137.06053075 -15 142 C-15.33 141.34 -15.66 140.68 -16 140 C-15.08638422 138.60216786 -14.16894254 137.20683607 -13.25 135.8125 C-12.73953125 135.03519531 -12.2290625 134.25789062 -11.703125 133.45703125 C-8.47263596 128.79653216 -5.67521002 125.69854905 -0.83618164 122.7097168 C2.4907402 120.08809033 3.81735647 118.66516264 4.94900513 114.54385376 C5.33363983 110.21683774 5.41286395 105.98379771 5.37890625 101.64453125 C5.40263705 100.0536134 5.43086477 98.46275691 5.46336365 96.87199402 C5.53716769 92.70280441 5.55297972 88.53542531 5.55548096 84.36566162 C5.56714136 80.12421537 5.62917787 75.8835676 5.68945312 71.64257812 C5.75681489 66.87460256 5.81998544 62.10727259 5.83827209 57.33882141 C5.84237091 56.61366333 5.84646973 55.88850525 5.85069275 55.14137268 C5.86085526 53.1878757 5.86616628 51.23435517 5.87110901 49.28083801 C5.98498577 46.38217763 6.35342017 43.81766205 7 41 C8.35168771 25.93467049 5.62705838 13.85728864 0 0 Z " fill="#CD3745" transform="translate(88,299)"/>
<path d="M0 0 C0.66 0.33 1.32 0.66 2 1 C2.02327362 1.84394318 2.04654724 2.68788635 2.07052612 3.55740356 C2.96504874 31.79755538 6.59576137 59.47328938 10.62719727 87.41589355 C11.95262219 96.6259392 13.24949656 105.84005374 14.54732895 115.05401993 C14.99840825 118.23830059 15.45691915 121.42143862 15.91677856 124.60446167 C16.19351794 126.54602116 16.47012637 128.48759931 16.74658203 130.42919922 C16.87435028 131.29967896 17.00211853 132.17015869 17.13375854 133.0670166 C17.7967978 137.76622744 18.12812168 142.25410743 18 147 C16.6021328 145.38707631 15.29147445 143.69930848 14 142 C13.50628906 141.41089844 13.01257813 140.82179688 12.50390625 140.21484375 C8.49920428 134.71212358 7.34535539 129.46136305 6.546875 122.87109375 C6.36604622 121.46325623 6.36604622 121.46325623 6.18156433 120.02697754 C4.47089792 106.30475711 3.13322515 92.53631563 1.78295898 78.77490234 C1.39041208 74.77639413 0.98778299 70.77897031 0.58262348 66.78172302 C0.26639791 63.64713958 -0.04343388 60.51194721 -0.35154152 57.3765564 C-0.49727016 55.90305032 -0.64511438 54.42975156 -0.79532433 52.95669556 C-2.20769864 39.05616459 -2.23456178 25.53884489 -1 11.625 C-0.90460938 10.49578125 -0.80921875 9.3665625 -0.7109375 8.203125 C-0.47916913 5.46825829 -0.24216018 2.73396264 0 0 Z " fill="#CD3745" transform="translate(227,308)"/>
<path d="M0 0 C0.33 0 0.66 0 1 0 C1.02578125 0.98355469 1.0515625 1.96710938 1.078125 2.98046875 C1.89416436 25.21210099 7.5884679 46.91184089 14.05322266 68.10302734 C21.7013487 93.23557094 24.79367858 118.67632702 24 145 C21.69 145 19.38 145 17 145 C16.95512451 143.98502441 16.91024902 142.97004883 16.86401367 141.92431641 C15.42828975 110.0112271 13.60616838 79.30654266 3.05541992 48.87915039 C-0.74746164 37.54237926 -1.30649335 26.12428395 -1.1875 14.25 C-1.18685547 12.9815625 -1.18621094 11.713125 -1.18554688 10.40625 C-1.14081031 1.14081031 -1.14081031 1.14081031 0 0 Z " fill="#CD3745" transform="translate(154,289)"/>
<path d="M0 0 C3.17239059 1.40061395 5.23320406 3.0705955 7.6875 5.5 C17.72747796 14.58063904 30.22927599 20.77244998 43 25 C44.98 25.66 46.96 26.32 49 27 C48.34 31.95 47.68 36.9 47 42 C37.07494234 38.01503331 28.34553814 33.84280458 20 27 C19.01515625 26.22398437 18.0303125 25.44796875 17.015625 24.6484375 C13.85669021 21.99969135 11.35660696 19.02909235 8.875 15.75 C8.44268066 15.18514893 8.01036133 14.62029785 7.56494141 14.03833008 C4.25801967 9.60247632 1.93973434 5.20201482 0 0 Z " fill="#EBA284" transform="translate(129,191)"/>
<path d="M0 0 C1.85680908 2.78521362 3.00663296 5.43969254 4.20654297 8.54614258 C9.36283811 21.8222054 16.38216582 33.32858182 25.15234375 44.51171875 C26.7275616 46.63310093 27.92541106 48.59764671 29 51 C32.4700276 47.62209703 35.63699384 44.13504664 38.6875 40.375 C39.83798828 38.96347656 39.83798828 38.96347656 41.01171875 37.5234375 C43.07490173 34.9735008 43.07490173 34.9735008 45 32 C45.99 32.495 45.99 32.495 47 33 C45.92293327 35.37801813 44.83861133 37.75227163 43.75 40.125 C43.44964844 40.79015625 43.14929688 41.4553125 42.83984375 42.140625 C37.39485569 53.9574076 37.39485569 53.9574076 33 57 C28.85927289 57.84696691 27.25638481 57.16447327 23.6875 54.875 C10.7569083 42.65801711 0.48843508 19.78981414 -0.09765625 2.04296875 C-0.06542969 1.36878906 -0.03320312 0.69460937 0 0 Z " fill="#CD3745" transform="translate(107,238)"/>
<path d="M0 0 C1.32 0 2.64 0 4 0 C3.33703506 3.82002552 2.26014536 7.28651798 0.91455078 10.92016602 C0.48385284 12.08810196 0.05315491 13.2560379 -0.39059448 14.45936584 C-0.8616808 15.72431622 -1.33305206 16.98916051 -1.8046875 18.25390625 C-2.28945604 19.55992046 -2.77408317 20.86598716 -3.25857544 22.17210388 C-4.27309704 24.90405645 -5.29063192 27.63486443 -6.31005859 30.36499023 C-7.61393902 33.85821757 -8.90825745 37.35490221 -10.20008659 40.85260105 C-11.19753622 43.54894506 -12.20105615 46.24299949 -13.20630264 48.93644524 C-13.68602665 50.22461869 -14.16363803 51.513581 -14.63906479 52.80334663 C-15.30496769 54.60765584 -15.980175 56.40852283 -16.65576172 58.20922852 C-17.03691132 59.23339371 -17.41806091 60.2575589 -17.8107605 61.3127594 C-18.94755058 63.88148375 -20.21725724 65.84240735 -22 68 C-22.99 67.67 -23.98 67.34 -25 67 C-24.40098755 62.74153491 -23.3964611 58.96221456 -21.89868164 54.93457031 C-21.46475601 53.76025452 -21.03083038 52.58593872 -20.58375549 51.3760376 C-20.10950176 50.10996206 -19.63496189 48.84399367 -19.16015625 47.578125 C-18.67281605 46.2688144 -18.18579608 44.95938457 -17.69908142 43.64984131 C-16.68125352 40.91513085 -15.65952813 38.18191777 -14.63500977 35.44970703 C-13.32170256 31.94636388 -12.01830652 28.43942931 -10.71778202 24.93132401 C-9.71547473 22.23099878 -8.70794666 19.53264513 -7.69882011 16.83486176 C-7.21596627 15.54206514 -6.73475191 14.24865497 -6.25520515 12.95462799 C-5.5856967 11.15038527 -4.90838849 9.3490426 -4.23071289 7.54785156 C-3.65565758 6.00946625 -3.65565758 6.00946625 -3.06898499 4.44000244 C-2 2 -2 2 0 0 Z " fill="#362333" transform="translate(374,152)"/>
<path d="M0 0 C1.31895031 3.95685093 0.39997123 6.98874984 -0.5 10.9375 C-0.67724609 11.7222168 -0.85449219 12.50693359 -1.03710938 13.31542969 C-2.52301166 19.57744644 -4.40031544 25.66825238 -6.5 31.75 C-6.78423828 32.58265381 -7.06847656 33.41530762 -7.36132812 34.27319336 C-9.39460167 39.9613803 -11.67326926 44.67326926 -16 49 C-21.32705391 49.12683462 -24.24355678 46.62915269 -27.96484375 43.1875 C-31.44135142 39.45075471 -34.24236319 35.28295467 -37 31 C-36.67 30.34 -36.34 29.68 -36 29 C-29.73 33.62 -23.46 38.24 -17 43 C-16.01 40.03 -15.02 37.06 -14 34 C-13.07682443 31.64068477 -12.12846189 29.29103323 -11.15234375 26.953125 C-10.8949794 26.33403259 -10.63761505 25.71494019 -10.37245178 25.0770874 C-9.56375953 23.13347598 -8.75078167 21.19169485 -7.9375 19.25 C-7.12165494 17.29361466 -6.30669381 15.33686286 -5.49183655 13.38006592 C-4.75629758 11.61509596 -4.01871262 9.85097905 -3.28100586 8.08691406 C-2.16571606 5.39933558 -1.07308923 2.70465183 0 0 Z " fill="#CD3745" transform="translate(191,242)"/>
<path d="M0 0 C0.77602066 0.00202423 1.55204132 0.00404846 2.35157776 0.00613403 C3.14447708 0.00517731 3.9373764 0.00422058 4.75430298 0.00323486 C6.43475931 0.00255302 8.11521826 0.00440757 9.79566956 0.00857544 C12.37230846 0.01391663 14.94877249 0.00863425 17.52540588 0.00222778 C19.15496356 0.0028887 20.78452113 0.00417015 22.41407776 0.00613403 C23.18807419 0.0041098 23.96207062 0.00208557 24.75952148 0 C30.21932235 0.0239907 30.21932235 0.0239907 32.44923401 1.13894653 C32.49177757 3.13849399 32.49004184 5.1393629 32.44923401 7.13894653 C30.63357965 8.9546009 28.13653439 8.26756553 25.72035217 8.27789307 C24.91932068 8.27586884 24.11828918 8.2738446 23.29298401 8.27175903 C22.06678345 8.27319412 22.06678345 8.27319412 20.81581116 8.2746582 C19.08408023 8.27533999 17.35234677 8.27348583 15.62062073 8.26931763 C12.96056919 8.26396932 10.30068651 8.26926265 7.64064026 8.27566528 C5.96225447 8.2750045 4.28386878 8.27372334 2.60548401 8.27175903 C1.80445251 8.27378326 1.00342102 8.2758075 0.17811584 8.27789307 C-5.4358152 8.25389732 -5.4358152 8.25389732 -6.55076599 7.13894653 C-6.67576599 4.13894653 -6.67576599 4.13894653 -6.55076599 1.13894653 C-4.76711258 -0.64470688 -2.37459594 0.01048017 0 0 Z " fill="#E9EDEE" transform="translate(289.55076599121094,109.86105346679688)"/>
<path d="M0 0 C3.84077563 1.35957038 6.72458598 3.10094681 9.94140625 5.58984375 C10.85470703 6.29173828 11.76800781 6.99363281 12.70898438 7.71679688 C13.65064453 8.44962891 14.59230469 9.18246094 15.5625 9.9375 C16.50802734 10.66646484 17.45355469 11.39542969 18.42773438 12.14648438 C20.18639148 13.50245251 21.94319462 14.86083113 23.69750977 16.22241211 C25.19539631 17.37882309 26.72964074 18.49006646 28.30053711 19.54516602 C28.86135986 20.02526123 29.42218262 20.50535645 30 21 C30 21.99 30 22.98 30 24 C28.3828125 25.53051758 28.3828125 25.53051758 26.125 27.14453125 C25.30386719 27.73943359 24.48273438 28.33433594 23.63671875 28.94726562 C22.33154297 29.87055664 22.33154297 29.87055664 21 30.8125 C19.31230368 32.02707101 17.62480186 33.24191231 15.9375 34.45703125 C15.10992187 35.04564941 14.28234375 35.63426758 13.4296875 36.24072266 C10.45413017 38.39525101 7.56429501 40.65094603 4.69140625 42.94018555 C3 44 3 44 0 44 C0.29971036 40.73786331 0.68729397 39.31195802 3.04125977 36.96362305 C3.91580811 36.31949463 4.79035645 35.67536621 5.69140625 35.01171875 C6.63564453 34.30595703 7.57988281 33.60019531 8.55273438 32.87304688 C9.54595703 32.15181641 10.53917969 31.43058594 11.5625 30.6875 C12.55958984 29.94693359 13.55667969 29.20636719 14.58398438 28.44335938 C17.04725486 26.61653198 19.51917792 24.80288066 22 23 C20.81552725 19.44658176 19.80386878 18.85776111 16.81640625 16.71484375 C15.97142578 16.10189453 15.12644531 15.48894531 14.25585938 14.85742188 C13.36705078 14.22384766 12.47824219 13.59027344 11.5625 12.9375 C9.81280758 11.67716074 8.06406427 10.41550251 6.31640625 9.15234375 C5.53724854 8.59538818 4.75809082 8.03843262 3.95532227 7.46459961 C2 6 2 6 0 4 C0 2.68 0 1.36 0 0 Z " fill="#392635" transform="translate(381,160)"/>
<path d="M0 0 C-0.33608787 2.96423159 -0.63100318 4.60157104 -2.68652344 6.82104492 C-3.40356445 7.36865479 -4.12060547 7.91626465 -4.859375 8.48046875 C-5.64570313 9.08697266 -6.43203125 9.69347656 -7.2421875 10.31835938 C-8.06976563 10.93517578 -8.89734375 11.55199219 -9.75 12.1875 C-10.56210937 12.81591797 -11.37421875 13.44433594 -12.2109375 14.09179688 C-16.05248135 17.01675086 -19.43158194 19.34272065 -24 21 C-20.304663 24.91229808 -16.41999191 28.00722781 -12 31.0625 C-9.65796817 32.69641751 -7.32592746 34.3432601 -5 36 C-4.030625 36.67933594 -3.06125 37.35867187 -2.0625 38.05859375 C-1.0415625 39.01958984 -1.0415625 39.01958984 0 40 C0 41.32 0 42.64 0 44 C-3.42134099 43.38048204 -5.53599834 42.09523451 -8.30078125 40.015625 C-9.11353516 39.40976563 -9.92628906 38.80390625 -10.76367188 38.1796875 C-12.0253418 37.22449219 -12.0253418 37.22449219 -13.3125 36.25 C-14.97494202 35.00478314 -16.63769739 33.75998451 -18.30078125 32.515625 C-19.09436035 31.91943359 -19.88793945 31.32324219 -20.70556641 30.70898438 C-23.7713507 28.42546767 -26.87887056 26.20711448 -30 24 C-29.44445433 20.44613466 -28.39337405 19.14043775 -25.53515625 17.01171875 C-24.82174072 16.47313232 -24.1083252 15.9345459 -23.37329102 15.37963867 C-22.61072998 14.82123291 -21.84816895 14.26282715 -21.0625 13.6875 C-20.29284912 13.11298096 -19.52319824 12.53846191 -18.73022461 11.9465332 C-16.4956685 10.28522912 -14.25025821 8.63994833 -12 7 C-11.4225 6.57589844 -10.845 6.15179688 -10.25 5.71484375 C-2.44435976 0 -2.44435976 0 0 0 Z " fill="#382534" transform="translate(346,160)"/>
<path d="M0 0 C5.03929609 3.68755358 8.53257084 8.1508713 9.8203125 14.33203125 C10.52073512 20.51909776 8.85776187 25.0438817 5.8203125 30.33203125 C1.88151877 35.25552341 -3.15113214 38.63478128 -9.4140625 39.71875 C-15.972166 40.04665517 -20.84398416 37.96509198 -25.94140625 33.94140625 C-31.18022571 29.12118496 -32.27340608 24.47369827 -32.6171875 17.45703125 C-32.49953379 11.52287234 -31.2199323 7.69549563 -27.1796875 3.33203125 C-19.49185874 -3.53210157 -9.20196912 -5.2715734 0 0 Z M-26.78515625 6.05859375 C-30.75654605 11.46502356 -31.09078101 16.80419644 -30.1796875 23.33203125 C-28.13562316 29.14147727 -24.52659621 32.78520506 -19.4296875 36.14453125 C-13.6873846 38.24268039 -8.54154874 38.23766302 -2.9296875 35.70703125 C1.95174134 32.94542609 4.82480238 29.56007771 7.1328125 24.39453125 C8.51447568 18.2398498 8.16570675 13.75941611 5.16015625 8.26171875 C2.59025279 4.56045838 -0.75528645 1.13523729 -5.1015625 -0.3046875 C-14.03751116 -1.86679883 -20.48446937 -0.71732742 -26.78515625 6.05859375 Z " fill="#D5E0EE" transform="translate(390.1796875,384.66796875)"/>
<path d="M0 0 C5.61526298 1.04834309 10.50841775 4.76019877 15 8.125 C15.495 9.115 15.495 9.115 16 10.125 C4.64764338 11.17753638 -6.60946892 11.22813358 -18 11.125 C-16.28663945 9.98275963 -14.56998985 8.8453376 -12.84375 7.72265625 C-12.0703125 7.21605469 -11.296875 6.70945312 -10.5 6.1875 C-9.7265625 5.68347656 -8.953125 5.17945313 -8.15625 4.66015625 C-5.98851589 3.22127681 -5.98851589 3.22127681 -4.40625 1.44140625 C-3 0.125 -3 0.125 0 0 Z " fill="#E64248" transform="translate(203,455.875)"/>
<path d="M0 0 C0.721875 0.495 1.44375 0.99 2.1875 1.5 C3.1775 2.16 4.1675 2.82 5.1875 3.5 C3.9091291 7.33511269 2.53786133 7.80987573 -0.87109375 9.890625 C-1.89654297 10.51710938 -2.92199219 11.14359375 -3.97851562 11.7890625 C-5.59790039 12.75972656 -5.59790039 12.75972656 -7.25 13.75 C-8.32572266 14.41257812 -9.40144531 15.07515625 -10.50976562 15.7578125 C-16.48376774 19.37296506 -16.48376774 19.37296506 -18.8125 20.5 C-19.4725 20.17 -20.1325 19.84 -20.8125 19.5 C-7.22759434 -1.28490566 -7.22759434 -1.28490566 0 0 Z " fill="#CC3745" transform="translate(267.8125,407.5)"/>
<path d="M0 0 C2.4375 0.875 2.4375 0.875 4.4375 3.875 C4.99824766 10.94042056 4.99824766 10.94042056 2.9375 14.375 C2.4425 14.87 1.9475 15.365 1.4375 15.875 C-1.10153996 15.52478759 -2.38343298 15.03488127 -4.3125 13.3125 C-6.21074149 9.6109291 -5.95753592 7.02287721 -5.5625 2.875 C-3.92978469 0.0392313 -3.26331106 -0.15918591 0 0 Z " fill="#351F2D" transform="translate(208.5625,122.125)"/>
<path d="M0 0 C2.4375 -0.4375 2.4375 -0.4375 5 0 C7.76320996 2.38207755 7.9864419 3.84814927 8.3125 7.5 C8.03133261 10.6490748 7.67527688 12.38237988 6 15 C3.6875 15.25 3.6875 15.25 1 15 C-1.16197737 13.21077735 -1.89157192 11.84201178 -2.25 9.05859375 C-2.36386881 5.19417091 -2.17344957 3.26017435 0 0 Z " fill="#331E2C" transform="translate(161,126)"/>
<path d="M0 0 C2.5 0.25 2.5 0.25 4.5 2.25 C4.86796448 5.12012296 4.87509409 6.65774618 3.3125 9.125 C1.5 10.25 1.5 10.25 -1.0625 10.0625 C-3.5 9.25 -3.5 9.25 -5.5 7.25 C-5.08994391 3.14943907 -4.53376372 0.45337637 0 0 Z " fill="#EEB342" transform="translate(155.5,435.75)"/>
<path d="M0 0 C1.29229206 2.48517704 2.41124316 4.97670251 3.5 7.5625 C4.89360094 11.03066797 4.89360094 11.03066797 7 14 C1.6 14.48 1.6 14.48 -0.875 12.5 C-2.54237312 8.7947264 -2.32696519 6.05436831 -2 2 C-1.34 1.34 -0.68 0.68 0 0 Z " fill="#2C213A" transform="translate(268,465)"/>
<path d="M0 0 C3.66666667 3.66666667 7.33333333 7.33333333 11 11 C13.01594582 11.23427778 15.038474 11.41336124 17.0625 11.5625 C18.16722656 11.64628906 19.27195313 11.73007812 20.41015625 11.81640625 C21.69212891 11.90728516 21.69212891 11.90728516 23 12 C23 12.33 23 12.66 23 13 C16.73 13 10.46 13 4 13 C0 2.25 0 2.25 0 0 Z " fill="#C73E50" transform="translate(232,452)"/>
<path d="M0 0 C0.99 1.0209375 0.99 1.0209375 2 2.0625 C4.94297989 5.0139125 8.07523395 7.72835661 11.23046875 10.44921875 C12.52866688 11.58693322 13.7794033 12.7794033 15 14 C11.7 14 8.4 14 5 14 C4.54625 12.618125 4.0925 11.23625 3.625 9.8125 C2.52024557 6.49300091 1.35367909 3.22800399 0 0 Z " fill="#DE4D55" transform="translate(218,452)"/>
<path d="M0 0 C0 0.66 0 1.32 0 2 C-1.37671875 1.91298828 -1.37671875 1.91298828 -2.78125 1.82421875 C-9.85502581 1.56415346 -14.84691091 1.44540854 -20.546875 5.90625 C-22 7 -22 7 -24 7 C-22.26147069 2.86230025 -20.33387991 1.60335653 -16.359375 -0.24609375 C-10.99346393 -1.96069778 -5.36604648 -1.51381587 0 0 Z " fill="#422934" transform="translate(171,104)"/>
<path d="M0 0 C0.70511719 0.32097656 1.41023438 0.64195313 2.13671875 0.97265625 C2.13671875 1.63265625 2.13671875 2.29265625 2.13671875 2.97265625 C1.43546875 2.8128125 0.73421875 2.65296875 0.01171875 2.48828125 C-2.99190098 1.94958858 -5.81307974 1.76934301 -8.86328125 1.72265625 C-9.87390625 1.696875 -10.88453125 1.67109375 -11.92578125 1.64453125 C-15.2728746 2.0184087 -17.03232405 3.23200014 -19.86328125 4.97265625 C-20.85328125 4.64265625 -21.84328125 4.31265625 -22.86328125 3.97265625 C-16.06686175 -1.6243951 -8.4045464 -3.01554666 0 0 Z " fill="#472D36" transform="translate(212.86328125,102.02734375)"/>
<path d="M0 0 C0.625 1.75 0.625 1.75 1 4 C0.33333333 5.33333333 -0.33333333 6.66666667 -1 8 C-1.47125235 10.66360025 -1.73049325 13.30493254 -2 16 C-2.33 16 -2.66 16 -3 16 C-4.01871227 11.11682489 -4.65965743 7.38456255 -2.0625 2.9375 C-1.381875 1.968125 -0.70125 0.99875 0 0 Z " fill="#C7D8EE" transform="translate(362,389)"/>
<path d="M0 0 C4.875 4.75 4.875 4.75 6 7 C5.71887936 9.00800456 5.38932033 11.01014051 5 13 C3.49439503 10.14589666 2.36783204 7.31875358 1.375 4.25 C0.98441406 3.05117188 0.98441406 3.05117188 0.5859375 1.828125 C0.39257812 1.22484375 0.19921875 0.6215625 0 0 Z " fill="#E64C4E" transform="translate(232,452)"/>
</svg>
