<svg width="30" height="28" viewBox="0 0 30 28" fill="none" xmlns="http://www.w3.org/2000/svg">
<path d="M23.8156 16.625V13.5625C23.8156 11.3879 21.9701 9.625 19.6937 9.625H17.8617C17.1029 9.625 16.4877 9.03737 16.4877 8.3125V6.5625C16.4877 4.38788 14.6422 2.625 12.3658 2.625H10.0758M10.0758 17.5H19.2357M10.0758 21H14.6557M12.8238 2.625H6.86983C6.111 2.625 5.49585 3.21263 5.49585 3.9375V24.0625C5.49585 24.7874 6.111 25.375 6.86983 25.375H22.4416C23.2005 25.375 23.8156 24.7874 23.8156 24.0625V13.125C23.8156 7.32601 18.8944 2.625 12.8238 2.625Z" stroke="#0F172A" stroke-width="1.5" stroke-linecap="round" stroke-linejoin="round"/>
</svg>
