<svg width="324" height="422" viewBox="0 0 324 422" fill="none" xmlns="http://www.w3.org/2000/svg">
<path fill-rule="evenodd" clip-rule="evenodd" d="M313.813 413.607C321.502 413.251 318.41 400.402 317.858 395.683C311.77 378.445 313.201 359.639 310.807 341.573C309.316 324.707 307.399 307.894 305.787 291.042C302.621 256.833 279.883 187.192 253.936 175.992C250.669 162.289 237.168 149.499 220.09 149.499C208.44 136.324 194.418 127.051 176.433 128.923C169.002 129.247 161.793 136.778 154.673 138.233C150.686 138.758 115.298 137.405 108.21 141.427C103.274 143.85 98.8166 148.326 100.269 154.024C102.585 160.929 95.3853 153.458 80.3686 160.826C49.7477 178.397 68.0468 201.904 68.8566 202.631C49.7477 228.034 33.0474 248.64 25.3187 279.689C20.3093 302.739 20.8743 326.535 16.6785 349.704C15.1964 357.738 12.9234 365.497 10.4639 373.298C7.79918 383.508 6.50354 408.954 5.03275 409.183C2.35671 409.818 6.58075 415.068 9.41498 415.071C88.0427 427.534 167.91 415.588 246.957 413.636C269.236 412.897 291.537 412.726 313.813 413.607Z" fill="white"/>
<path fill-rule="evenodd" clip-rule="evenodd" d="M194.642 204.872C194.648 204.805 194.679 204.742 194.731 204.697C194.783 204.651 194.851 204.626 194.921 204.626C194.992 204.626 195.06 204.651 195.112 204.697C195.163 204.742 195.195 204.805 195.201 204.872L195.755 209.992C196.431 216.246 197.081 222.487 197.553 228.77C198.141 236.602 198.532 244.435 198.723 252.288C199.384 279.632 199.514 306.991 199.57 334.344C206.069 333.915 212.57 333.511 219.073 333.132L225.777 332.744L228.536 332.582C230.4 332.472 232.519 332.022 233.822 333.601C234.345 334.233 234.607 335.055 234.119 335.805C232.997 337.535 231.274 337.474 229.323 337.549C227.483 337.619 225.645 337.69 223.805 337.756C219.862 337.904 215.92 338.04 211.977 338.146C207.84 338.258 203.702 338.348 199.564 338.414C199.523 349.963 199.022 361.496 198.482 373.03L198.237 378.221C197.576 392.257 196.864 406.305 195.853 420.323C195.77 421.471 194.071 421.469 193.988 420.323C192.849 404.537 192.098 388.717 191.354 372.909C190.823 361.451 190.489 349.986 190.35 338.517C189.802 338.521 189.256 338.528 188.71 338.53C173.181 338.594 157.657 338.659 142.13 338.521C142.159 338.549 142.182 338.582 142.2 338.618C143.322 341.152 143.43 344.386 143.402 347.105C143.356 350.217 142.946 353.314 142.179 356.339C139.484 367.208 132.537 376.94 124.622 384.989L124.364 385.249C122.496 387.134 120.355 389.028 119.21 391.427C118.038 393.879 117.632 396.746 117.054 399.379L116.986 399.683L114.726 409.652C114.01 412.818 113.805 417.437 111.182 419.721C108.734 421.852 105.493 420.739 104.34 417.994C103.44 415.852 104.336 413.5 104.869 411.359L109.044 394.597C109.73 391.863 110.479 389.111 111.959 386.654C113.475 384.14 115.698 382.316 117.967 380.451C122.291 376.901 126.174 372.889 129.539 368.494C132.873 364.116 135.72 359.29 137.718 354.217C138.718 351.677 139.537 349.037 140.104 346.377C140.641 343.853 140.637 341.238 141.211 338.742C141.251 338.569 141.403 338.45 141.577 338.398C141.535 338.287 141.599 338.136 141.763 338.127L154.462 337.346C165.75 336.65 177.038 335.938 188.314 335.121L190.307 334.985C190.152 319.686 190.284 304.385 190.574 289.081C190.838 275.047 190.843 261.009 191.28 246.977C191.499 240.012 191.966 233.065 192.487 226.115C193.02 219.007 193.873 211.958 194.642 204.872ZM75.4045 286.245C75.2689 285.466 76.2953 284.982 76.7698 285.696C82.1747 293.838 84.7829 302.684 85.8827 312.215C86.8525 320.625 86.5663 329.155 86.0842 337.589C85.5682 346.582 84.9674 355.573 84.3592 364.562L83.4232 378.346L81.0786 412.904C80.9091 415.376 80.3234 417.624 78.0956 418.773C77.8131 418.998 77.5193 419.199 77.1766 419.376C75.9732 419.989 74.3763 419.68 73.6814 418.5L73.9601 418.674C74.2049 418.822 73.93 418.617 73.1409 418.063L72.4724 417.235C71.9895 416.575 71.6736 415.816 71.5496 415.019C71.3556 413.728 71.6061 412.312 71.6946 411.016L73.2332 388.355C74.429 370.738 75.8245 353.127 76.8772 335.503C77.3668 327.287 77.7096 319.065 77.4779 310.835C77.2463 302.652 76.8075 294.33 75.4045 286.245ZM122.183 134.553L122.485 134.504C133.225 132.799 144.902 133.119 154.718 138.066C154.799 138.105 154.763 138.235 154.671 138.231L151.513 138.111C141.511 137.736 131.539 137.515 121.705 139.76L120.698 139.992C117.157 140.817 113.459 141.828 110.613 144.062C107.894 146.199 106.54 149.494 105.238 152.528L105.065 152.929C103.743 155.924 102.071 158.765 99.1763 160.639C95.4287 163.066 90.9165 162.769 86.6171 163.098C79.0466 163.679 72.8584 168.922 69.7775 175.336C67.9131 179.221 67.1184 183.575 66.9602 187.823C66.8792 189.985 66.8679 192.231 67.1692 194.381C67.2653 195.068 68.1542 197.57 68.608 197.51C69.6155 197.375 70.5345 197.877 70.849 198.647C73.3387 196.346 75.903 194.119 78.5382 191.971C85.1307 186.593 92.2062 181.78 99.6828 177.587C105.381 174.402 111.396 171.247 117.62 168.861C117.117 168.848 116.618 168.957 116.17 169.179C115.963 169.282 115.76 169.035 115.922 168.872C117.882 166.9 120.232 166.62 122.6 167.145C123.106 166.992 123.611 166.843 124.119 166.702C124.372 166.632 124.496 166.965 124.291 167.093L123.709 167.447C126.293 168.274 128.829 169.9 130.837 171.183C136.605 174.864 141.682 179.368 146.829 183.785L147.765 184.588C152.296 188.453 156.94 192.208 162.089 195.307C164.782 196.931 167.612 198.431 170.58 199.548C173.126 200.507 177.271 201.109 178.465 203.681C179.523 204.911 179.081 206.48 177.84 207.309C175.746 209.51 171.559 208.088 169.064 207.17C166.055 206.069 163.145 204.734 160.364 203.179C154.97 200.152 149.997 196.392 145.362 192.39C140.522 188.21 135.959 183.769 131.251 179.458C129.212 177.589 127.221 175.677 125.178 173.812L124.151 172.884C123.11 171.951 121.624 170.494 120.037 169.613C117.044 171.318 114.007 172.953 111.042 174.703C106.905 177.143 102.888 179.76 98.9333 182.463C91.3106 187.695 84.1148 193.472 77.4082 199.744C65.1278 211.203 54.6629 224.288 45.5218 238.14L44.825 239.196C39.6311 247.126 34.7197 255.311 31.2357 264.074C27.4034 273.716 25.539 283.855 24.5277 294.09C23.5221 304.252 23.1831 314.465 22.0607 324.618C20.9082 335.029 18.639 345.211 16.0571 355.375L15.4413 357.783C13.1061 366.886 10.6956 375.988 9.49409 385.305C8.8538 390.282 8.46774 395.327 8.55436 400.343C8.64287 405.39 9.47337 410.323 10.1419 415.316C10.398 417.23 8.42819 418.827 6.66551 419.079C4.63729 419.37 2.8972 418.135 2.26633 416.336C0.302141 410.726 -0.0556665 404.525 0.00647943 398.636C0.0686253 392.659 0.867105 386.721 1.9895 380.846C4.20038 369.291 7.61088 357.976 10.4639 346.558C12.978 336.495 14.6635 326.414 15.5731 316.107C16.5185 305.411 17.0834 294.68 18.8066 284.061C20.5052 273.579 23.7029 263.567 28.5277 254.009C32.9212 245.306 38.3957 237.115 44.1357 229.174C51.1074 219.534 58.7645 210.359 67.3218 202C66.5105 201.957 65.7245 201.715 65.0393 201.298C62.8209 199.976 61.7889 197.392 61.4707 195.032C60.7268 189.508 60.9057 183.744 62.3934 178.345C64.7907 169.636 71.0147 161.897 80.0334 158.758C82.3554 157.949 84.8243 157.654 87.2838 157.596C89.619 157.541 92.1688 157.832 94.4211 157.125C98.0068 155.997 99.5435 151.963 100.89 148.906L100.952 148.765C102.679 144.868 104.751 141.526 108.489 139.093C112.479 136.495 117.477 135.316 122.183 134.553ZM224.234 149.967C227.46 148.897 231.496 149.868 234.652 150.801C238.168 151.843 241.419 153.762 244.204 156.039C247.153 158.449 249.563 161.402 251.289 164.722L251.453 165.041C253.019 168.116 254.805 172.336 254.014 175.713C253.992 175.807 253.966 175.899 253.936 175.99C260.339 179.003 266.253 182.775 271.403 187.555C277.399 193.124 282.478 199.458 286.774 206.302C303.84 233.484 306.843 266.13 308.86 297.128L309.363 304.988C310.457 321.961 311.738 338.893 315.064 355.63L315.306 356.839C318.864 374.364 323.954 392.023 323.438 410.001C323.284 415.388 314.952 415.35 314.71 410.001C313.8 389.864 308.883 370.422 305.551 350.6C299.691 315.727 302.629 279.774 294.324 245.25C291.066 231.701 286.019 218.559 278.81 206.465C275.251 200.491 271.177 194.717 266.405 189.564C262.3 185.129 258.032 180.861 253.234 177.132C251.701 178.6 248.637 177.852 247.837 175.713C247.287 174.242 247.447 172.524 247.095 170.985C246.772 169.549 246.31 168.146 245.714 166.792C244.478 164.077 242.792 161.57 240.722 159.366C238.539 157.041 235.996 155.049 233.182 153.46C230.34 151.839 227.231 151.355 224.234 150.172C224.133 150.132 224.123 150.003 224.234 149.967ZM236.773 336.341C236.774 336.309 236.785 336.279 236.804 336.253C236.822 336.228 236.849 336.208 236.879 336.196C236.909 336.184 236.943 336.18 236.975 336.186C237.007 336.192 237.037 336.206 237.061 336.227C238.191 337.222 238.876 338.65 239.709 339.875C240.669 341.285 241.677 342.668 242.735 344.013C244.854 346.711 247.213 349.253 249.59 351.744C251.81 354.064 254.15 356.276 256.603 358.371C259.253 360.638 262.221 362.659 264.627 365.17C269.65 370.406 270.462 377.593 271.52 384.341L271.637 385.071C272.283 389.077 272.861 393.093 273.383 397.115C273.637 399.07 273.891 401.028 274.096 402.989L274.16 403.611C274.345 405.53 274.394 407.478 273.241 409.156C272.006 410.951 269.196 411.579 267.528 409.859C264.658 406.902 265.196 401.651 264.823 397.848C264.515 394.703 264.164 391.562 263.772 388.426L263.573 386.857C263.111 383.291 262.737 379.65 261.884 376.145C261.13 373.059 259.695 370.728 257.339 368.49C254.968 366.238 252.503 364.134 250.313 361.708C247.997 359.127 245.89 356.381 244.01 353.495C242.396 351.033 241.101 348.352 239.916 345.675L239.718 345.227C238.573 342.618 236.684 339.218 236.773 336.341ZM278.196 224.187C278.22 223.822 278.784 223.816 278.793 224.187L279 233.584C279.548 258.826 279.209 284.126 281.861 309.281C283.111 321.141 285.412 332.826 288.075 344.465C289.439 350.42 290.87 356.359 292.228 362.316C293.552 368.12 294.972 373.952 296.022 379.81C297.054 385.568 297.979 391.37 298.393 397.201L298.444 397.962C298.623 400.787 299.476 404.942 297.847 407.446C296.085 410.158 292.706 410.206 290.815 407.616C289.041 405.187 289.482 400.861 289.169 397.962C288.856 395.005 288.509 392.052 288.13 389.102C287.384 383.352 286.399 377.614 285.377 371.904C283.245 360.01 280.155 348.267 277.872 336.391C275.533 324.224 273.872 311.97 273.801 299.581C273.731 287.088 275.115 274.619 275.814 262.151C276.524 249.491 277.332 236.838 278.196 224.187ZM153.394 145.677C154.104 143.395 156.607 141.968 159.049 142.609C161.286 143.197 163.134 145.792 162.26 148.012C161.305 150.434 159.637 152.501 158.23 154.704C156.931 156.738 155.034 158.341 153.71 160.339L155.17 161.841C155.898 162.591 156.631 163.336 157.371 164.068L159.915 166.586C161.889 168.549 163.897 170.481 165.94 172.379C171.968 177.935 178.092 183.307 184.843 188.064C186.375 189.157 187.934 190.213 189.521 191.231L190.116 191.607C191.209 192.291 192.427 192.964 193.747 192.847C196.952 192.566 199.851 189.312 202.054 187.287L202.169 187.181C207.63 182.217 212.687 176.791 217.107 170.954C218.087 169.656 219.04 168.339 219.965 167.005C217.828 164.62 218.338 159.963 218.22 157.071C218.137 155.037 218.131 153.003 218.118 150.967L218.112 150.557C218.088 149.238 218.026 147.974 218.92 146.891C218.971 146.828 219.08 146.83 219.146 146.862C220.372 147.476 220.749 148.504 221.272 149.656L221.327 149.776C221.963 151.159 222.574 152.555 223.189 153.947C223.835 155.404 224.428 156.882 225.027 158.355C225.306 159.041 225.573 159.729 225.833 160.422C225.993 160.864 226.157 161.303 226.325 161.744L226.366 161.776C226.589 161.958 226.777 162.149 226.941 162.345C227.624 162.672 228.167 163.267 228.423 164.143C228.978 166.048 227.83 167.6 226.805 169.113C222.643 175.255 217.899 181.109 212.625 186.418C210.003 189.058 207.253 191.577 204.382 193.967L203.881 194.381C201.305 196.498 198.506 198.501 195.065 198.996C191.037 199.575 187.761 197.661 184.676 195.458L184.369 195.237C181.442 193.128 178.587 190.929 175.808 188.645C170.151 183.98 164.768 178.969 159.993 173.472C155.347 168.125 150.754 162.147 147.889 155.711C147.716 155.321 148.174 154.909 148.533 155.237C149.931 156.523 151.29 157.848 152.609 159.21C152.646 157.21 152.26 155.193 152.475 153.181C152.737 150.735 152.661 148.031 153.394 145.677Z" fill="black"/>
<path fill-rule="evenodd" clip-rule="evenodd" d="M245.139 97.3197C242.745 80.0704 242.207 63.511 241.421 46.0056L245.139 21.2302C244.962 16.5495 238.874 14.9712 236.549 19.1162C231.265 13.2648 221.802 14.1252 214.584 14.3038C172.085 15.8081 135.608 43.1552 121.019 83.1641C120.669 84.1182 119.22 87.8826 117.932 87.8826C111.133 110.529 134.51 124.614 150.912 134.711C157.565 141.733 165.385 147.566 174.216 151.562C184.462 156.355 195.594 158.973 206.906 159.249C209.369 159.305 210.849 157.316 211.028 155.258C214.609 154.424 220.736 155.386 222.63 151.722C244.223 142.355 248.236 120.73 245.139 97.3197Z" fill="white"/>
<path fill-rule="evenodd" clip-rule="evenodd" d="M176.767 0.537657C189.706 -0.716342 202.385 0.337265 215.136 2.51754C216.11 2.68639 216.664 3.29819 216.869 4.03372C222.875 4.29622 228.887 4.71809 234.885 5.03241C237.061 5.1465 238.296 7.205 237.304 9.06393C237.106 9.43317 236.899 9.79244 236.691 10.1517L236.954 10.0687C238.758 9.51473 240.707 9.24144 242.465 10.121C244.703 11.2403 245.579 13.7099 245.085 15.983C244.959 16.5634 244.745 17.1195 244.505 17.6623C244.995 17.6312 245.49 17.6415 245.981 17.7036C248.593 18.0353 250.535 19.9526 250.672 22.5055C250.875 26.3605 248.28 30.2714 245.222 33.0311C245.666 33.9056 245.835 34.935 245.651 35.9783C245.284 38.0406 243.697 39.2756 241.857 40.0813C242.624 42.4134 242.986 44.8516 242.772 47.3434C242.701 48.1752 241.94 48.8624 241.139 49.0309C244.129 56.9122 245.642 65.3737 246.731 73.6187C247.508 79.4848 247.891 85.3854 247.937 91.2958C247.959 93.9633 247.913 96.6358 247.797 99.3049L247.749 100.305C247.605 103.19 247.597 106.219 247.055 109.073C248.904 112.082 249.647 115.817 249.961 119.187C250.351 123.36 249.734 127.665 248.359 131.634C243.169 146.634 227.505 156.099 211.773 158.559C197.209 160.836 180.358 157.771 171.849 145.111C171.714 144.909 171.999 144.744 172.165 144.877C178.255 149.615 185.317 151.729 192.991 152.758C206.258 154.535 221.17 151.523 231.818 143.535C236.928 139.7 240.613 134.118 242.234 128.11C243.061 125.04 243.346 121.837 243.02 118.677C242.689 115.47 241.206 112.734 240.271 109.705C239.957 108.682 240.288 107.732 240.943 107.056C241.125 104.596 241.559 102.115 241.725 99.6629C241.91 96.8744 242.021 94.0876 242.062 91.2958C242.137 85.5064 241.884 79.7056 241.375 73.9402C240.444 63.3829 237.972 53.0817 236.521 42.6141C235.983 43.0752 235.213 43.2647 234.407 42.8617L234.323 42.8179L233.882 42.5765C233.856 42.5765 233.829 42.58 233.804 42.5831C230.79 42.8632 227.664 42.4624 224.777 41.6019C221.755 40.704 218.951 39.3222 216.447 37.4809C215.97 39.7918 215.772 42.127 215.768 44.483C215.765 45.9547 214.137 46.7184 212.844 46.0897C207.117 43.305 201.646 40.0962 196.452 36.4896C195.846 39.4639 195.239 42.4379 194.629 45.4157C194.394 46.5629 192.868 47.0258 191.889 46.4801C187.999 44.3137 184.639 41.478 181.902 38.106C181.357 39.1056 180.809 40.1053 180.257 41.1027L179.427 42.5968C178.608 44.0651 177.51 45.689 175.716 46.1584C173.818 46.6559 172.233 45.4783 171.596 43.8336C171.401 43.3227 171.22 42.7972 171.054 42.2686C169.436 45.8031 167.61 49.2576 165.546 52.5533C162.449 57.4964 158.732 61.9009 155.025 66.4193C153.899 67.7912 151.972 66.4816 151.816 65.1485C151.726 64.3643 151.651 63.5766 151.586 62.7922C149.426 66.9638 147.171 71.0965 144.717 75.1094L145.068 76.4279C146.081 80.324 146.922 84.2478 147.838 88.1641C148.133 89.4276 147.431 91.2353 145.888 91.4495C144.045 91.7077 142.303 92.6083 140.415 91.9888C138.356 91.3122 137.95 89.609 136.978 87.9957C136.783 87.6737 136.557 87.3779 136.315 87.0984L136.253 87.1736C136.103 87.3648 135.741 87.1572 135.831 86.9398L135.937 86.6881C135.102 85.8398 134.104 85.1321 133.185 84.372C131.002 84.019 128.547 84.4047 127.043 85.2546C123.618 87.1883 122.044 91.1749 122.012 94.8411C121.972 99.1317 123.362 103.953 125.708 107.621C126.74 109.236 128.155 110.693 130.024 111.409C131.88 112.12 133.89 111.899 135.777 112.569C137.026 113.015 137.794 114.341 137.041 115.544C136.99 115.626 136.933 115.702 136.879 115.782L137.439 116.495C137.825 116.989 138.228 117.518 138.604 118.069C139.564 119.125 140.574 120.145 141.553 121.185C143.36 123.102 145.115 125.071 146.893 127.015C148.572 128.85 150.347 130.573 152.177 132.27C153.906 133.877 156.065 135.227 157.652 136.941C159.196 138.613 159.617 141.531 157.075 142.499C154.264 143.572 151.775 141.057 149.883 139.38L149.802 139.31C146.334 136.255 143.201 132.763 140.714 128.919C138.249 130.524 134.685 130.678 132.23 129.073C130.939 128.228 129.948 126.807 129.467 125.264C129.013 125.361 128.559 125.418 128.117 125.411C127.889 125.539 127.661 125.661 127.429 125.776C125.599 126.688 123.351 126.281 122.514 124.342C121.751 122.582 122.537 120.583 123.224 118.888L123.366 118.538C123.755 117.571 124.185 116.518 124.719 115.526C123.232 114.455 121.961 113.125 120.886 111.613C117.273 106.516 115.469 99.0647 116.266 92.9859C116.746 89.3164 118.547 85.5162 121.496 83.0432L121.388 82.7735C120.561 80.7664 119.81 78.7521 119.323 76.6315C118.753 74.1511 118.475 71.5808 118.222 69.0556C117.688 63.7217 117.833 58.267 118.544 52.9539C119.879 42.953 123.264 33.1353 129.274 24.8131C127.57 22.861 126.22 20.5637 126.924 17.9214C127.245 16.7084 127.978 15.5585 129.083 14.8637C129.692 14.4805 130.418 14.4219 131.028 14.1041L131.211 14.0074C131.479 13.8578 131.274 13.8737 131.114 13.1782C130.483 10.4005 131.006 7.7166 134.2 6.79425C137.207 5.92714 140.051 7.76842 141.829 9.9621C146.486 6.80078 152.621 5.14649 158.018 3.74048C164.152 2.14749 170.448 1.15289 176.767 0.537657ZM126.476 93.7067C126.454 91.4446 128.695 90.0487 130.901 90.4181C132.382 90.6649 133.618 91.5116 134.777 92.386L135.343 92.8143C136.756 93.8751 138.379 95.0192 139.219 96.523C140.454 98.741 137.846 101.726 135.409 100.171C133.738 99.099 132.667 97.3811 131.57 95.7858L131.457 95.6207C130.959 94.9065 130.522 94.1464 129.84 93.5727L129.692 93.4485C129.468 93.2654 129.227 93.0987 128.937 93.0202C128.379 92.8666 127.343 93.0807 127.097 93.7182L127.075 93.7835C126.985 94.1039 126.48 94.0353 126.476 93.7067Z" fill="black"/>
<path fill-rule="evenodd" clip-rule="evenodd" d="M210.305 129.36C207.606 128.308 205.255 126.58 203.499 124.359C203.23 124.033 203.034 123.657 202.925 123.256C202.815 122.854 202.794 122.436 202.862 122.026C203.005 121.186 203.525 120.427 204.233 119.916C204.943 119.405 205.832 119.154 206.691 119.281C207.438 119.393 208.18 119.783 208.77 120.594L208.892 120.756C209.916 122.094 211.264 123.174 212.821 123.905C214.327 124.612 216.014 124.896 217.683 124.722C220.956 124.369 223.21 122.679 225.608 120.382C225.905 120.092 226.203 119.794 226.5 119.49C226.675 119.233 226.937 119.04 227.242 118.945C227.574 118.845 227.93 118.849 228.258 118.957C228.587 119.064 228.871 119.269 229.069 119.542C229.252 119.799 229.357 120.118 229.323 120.484C229.103 122.864 227.801 124.986 225.952 126.654C223.898 128.506 221.174 129.787 218.611 130.236C215.789 130.731 212.911 130.377 210.305 129.36ZM219.945 92.6551C222.948 94.4015 227.527 98.4699 224.295 102.795C220.489 106.608 215.013 102.236 212.314 100.258C209.811 98.7253 206.998 102.668 209.32 104.457C228.826 118.254 236.741 93.1119 221.465 90.6047C219.781 90.3277 219.158 92.1155 219.945 92.6551ZM184.992 76.6064C185.324 72.6693 191.599 71.7754 192.224 75.6711C192.781 79.1604 192.124 82.3672 190.478 85.5093C188.908 88.5094 184.957 87.1101 184.657 84.3762C184.256 80.7125 184.785 79.0561 184.992 76.6064ZM232.76 74.8636C233.636 73.7682 234.899 73.0218 236.412 73.4427C241.14 74.7646 239.747 81.1784 238.086 84.3007C237.184 85.995 234.267 86.4248 232.948 84.932C230.801 82.4985 229.771 77.637 232.504 75.2377C232.577 75.1154 232.66 74.9895 232.76 74.8636ZM190.412 59.3814L191.16 59.2555C193.471 58.8742 196.342 58.5073 197.977 60.2807C198.845 61.2232 199.143 62.9732 197.977 63.8743C195.928 65.457 193.661 64.8455 191.205 64.9786C189.201 65.0882 187.215 65.4116 185.286 65.9426C181.008 67.1117 177.522 69.243 173.868 71.5848C173.39 71.8905 172.9 71.306 173.128 70.8779C175.237 66.9301 179.324 63.689 183.418 61.7124C185.604 60.6566 187.994 59.7825 190.412 59.3814ZM228.449 57.6134L229.022 57.7249C235.244 58.966 243.327 61.448 246.272 67.288C246.385 68.1135 246.266 68.2898 246.17 68.4049L246.138 68.4444C246.057 68.5434 245.995 68.6783 245.62 68.7916C245.515 68.7674 245.409 68.7422 245.304 68.716C243.954 68.3779 242.886 67.9121 241.852 67.4282L240.73 66.9013C239.428 66.2898 238.116 65.7034 236.724 65.27C233.758 64.3416 230.702 63.697 227.602 63.3455C226.941 63.2827 226.309 63.053 225.771 62.68C225.259 62.3128 224.897 61.787 224.747 61.1926C224.528 60.3527 224.593 59.7178 225.063 58.9588C225.417 58.3904 225.926 57.9965 226.508 57.7699C227.125 57.5372 227.8 57.4828 228.449 57.6134Z" fill="black"/>
<path fill-rule="evenodd" clip-rule="evenodd" d="M253.473 86.9788C252.349 89.9051 250.635 92.9501 248.541 95.4123C240.07 102.267 231.837 98.4717 227.658 89.1821C226.069 82.6155 230.287 75.5435 234.754 70.7143C241.208 64.5344 251.741 67.7772 254.707 75.1244C254.888 76.0777 254.997 77.0255 255.048 77.9734C254.987 81.0489 254.599 83.6766 253.473 86.5993M172.04 81.0795C183.199 68.3959 204.08 67.7161 203.548 87.2378C201.15 111.948 160.778 105.884 172.04 81.0795ZM256.984 70.4985C256.591 69.8629 256.157 69.2514 255.684 68.6675C255.509 68.5668 255.409 67.6837 254.765 67.6189C246.161 58.5487 231.044 63.6944 225.583 72.7323C224.574 73.9039 223.761 75.2174 223.172 76.6262C217.79 75.682 211.517 75.8654 206.512 77.8079C201.549 65.4265 186.523 64.3204 176.621 69.6118C170.463 72.5057 166.471 78.5651 160.48 81.8942C146.402 82.8637 131.289 79.8493 117.464 83.2234C106.56 85.3889 115.675 90.6641 117.504 87.1443C130.539 83.4644 145.982 86.5741 159.516 85.745C160.923 88.0184 163.622 89.8799 166.311 89.8008C169.217 114.404 206.768 110.324 208.063 88.4536C209.532 86.2342 211.359 84.1101 213.975 82.727C214.977 82.5291 215.945 82.2719 216.828 81.8727C218.34 81.6694 220.668 82.2809 222.058 83.4824C226.82 110.783 254.255 107.603 259.157 83.6874C259.255 83.5921 259.528 83.236 259.737 82.664C261.415 80.5435 265.522 79.7557 264.867 76.1766C264.281 72.5974 259.55 72.6406 256.984 70.4985Z" fill="black"/>
</svg>
