<svg width="24" height="24" viewBox="0 0 24 24" fill="none" xmlns="http://www.w3.org/2000/svg">
<g clip-path="url(#clip0_1_256)">
<path d="M8.63438 16.725C7.35938 15.525 6.60938 13.875 6.60938 12C6.60938 10.125 7.35938 8.47499 8.55938 7.27499C9.60938 6.22499 9.60938 4.57499 8.55938 3.52499C7.50938 2.47499 5.85938 2.47499 4.80938 3.52499C2.70938 5.69999 1.35938 8.69999 1.35938 12C1.35938 15.3 2.70938 18.3 4.88438 20.475C5.93438 21.525 7.58438 21.525 8.63438 20.475C9.60938 19.425 9.60938 17.775 8.63438 16.725Z" fill="#FAE501"/>
<path d="M8.61562 7.275C9.81563 6 11.4656 5.25 13.3406 5.25C15.2156 5.25 16.8656 6 18.0656 7.2C19.1156 8.25 20.7656 8.25 21.8156 7.2C22.8656 6.15 22.8656 4.5 21.8156 3.45C19.6406 1.35 16.6406 0 13.3406 0C10.0406 0 7.04063 1.35 4.86563 3.525C3.81562 4.575 3.81562 6.225 4.86563 7.275C5.91563 8.25 7.56563 8.25 8.61562 7.275Z" fill="#4FB5E1"/>
<path d="M18.0844 16.725C16.8844 18 15.2344 18.75 13.3594 18.75C11.4844 18.75 9.83442 18 8.63442 16.8C7.58442 15.75 5.93442 15.75 4.88442 16.8C3.83442 17.85 3.83442 19.5 4.88442 20.55C7.05942 22.65 10.0594 24 13.3594 24C16.6594 24 19.6594 22.65 21.8344 20.475C22.8844 19.425 22.8844 17.775 21.8344 16.725C20.7844 15.75 19.1344 15.75 18.0844 16.725Z" fill="#F05751"/>
<path d="M6.75928 8.02502C8.20902 8.02502 9.38428 6.84977 9.38428 5.40002C9.38428 3.95028 8.20902 2.77502 6.75928 2.77502C5.30953 2.77502 4.13428 3.95028 4.13428 5.40002C4.13428 6.84977 5.30953 8.02502 6.75928 8.02502Z" fill="#0681B6"/>
<path d="M6.75928 21.225C8.20902 21.225 9.38428 20.0497 9.38428 18.6C9.38428 17.1502 8.20902 15.975 6.75928 15.975C5.30953 15.975 4.13428 17.1502 4.13428 18.6C4.13428 20.0497 5.30953 21.225 6.75928 21.225Z" fill="#CD4739"/>
</g>
<defs>
<clipPath id="clip0_1_256">
<rect width="24" height="24" fill="white"/>
</clipPath>
</defs>
</svg>
