<svg width="24" height="24" viewBox="0 0 24 24" fill="none" xmlns="http://www.w3.org/2000/svg">
<path d="M23.3892 10.9459L13.0548 0.611993C12.46 0.0168682 11.4948 0.0168682 10.8991 0.611993L8.7535 2.75812L11.4756 5.48024C12.1084 5.26668 12.8337 5.40993 13.3379 5.91412C13.5782 6.15461 13.7459 6.45787 13.8219 6.78922C13.898 7.12056 13.8792 7.46662 13.7678 7.78781L16.3913 10.4117C17.026 10.1929 17.7586 10.3342 18.2652 10.842C18.9739 11.5502 18.9739 12.6982 18.2652 13.4068C18.0968 13.5753 17.8968 13.709 17.6767 13.8002C17.4566 13.8914 17.2207 13.9383 16.9824 13.9383C16.7442 13.9383 16.5082 13.8914 16.2881 13.8002C16.068 13.709 15.8681 13.5753 15.6996 13.4068C15.4466 13.1536 15.2741 12.8312 15.2038 12.4802C15.1336 12.1291 15.1688 11.7652 15.3049 11.4341L12.8584 8.98743L12.8581 15.4264C13.0356 15.5138 13.1976 15.6295 13.3379 15.7691C14.0464 16.4773 14.0464 17.625 13.3379 18.3347C12.6293 19.0429 11.4809 19.0429 10.7731 18.3347C10.0647 17.6252 10.0066 16.4775 10.7148 15.7691C10.8899 15.5942 11.0626 15.462 11.2501 15.3735V8.87493C11.0626 8.78643 10.8901 8.65518 10.7146 8.47912C10.1781 7.94287 10.0778 7.15537 10.3531 6.49612L7.68438 3.81243L0.605502 10.8981C0.01019 11.4937 0.01394 12.459 0.609252 13.0543L10.9454 23.3882C11.5403 23.9833 12.5063 23.9833 13.1022 23.3882L23.3884 13.1023C23.9838 12.5068 23.9843 11.541 23.3892 10.9459Z" fill="#F34F29"/>
</svg>
