<svg width="24" height="24" viewBox="0 0 24 24" fill="none" xmlns="http://www.w3.org/2000/svg">
<path d="M3.44819 18.1597L2.58569 17.6615L12.1951 1.01886L13.057 1.51686L3.44819 18.1597Z" fill="#E434AA"/>
<path d="M2.3877 16.3322H21.6057V17.3278H2.3877V16.3322Z" fill="#E434AA"/>
<path d="M12.381 22.4415L2.7688 16.8919L3.2668 16.029L12.8792 21.5794L12.381 22.4415ZM20.7313 7.97683L11.1191 2.42645L11.6171 1.56451L21.2295 7.11395L20.7313 7.97683Z" fill="#E434AA"/>
<path d="M3.26894 7.9731L2.77075 7.11042L12.3839 1.56079L12.8819 2.42292L3.26894 7.9731Z" fill="#E434AA"/>
<path d="M20.5541 18.1597L10.9455 1.51686L11.8076 1.01886L21.417 17.6615L20.5541 18.1597ZM3.15015 6.44961H4.14633V17.5504H3.15033L3.15015 6.44961Z" fill="#E434AA"/>
<path d="M19.854 6.44965H20.85V17.5504H19.854V6.44965Z" fill="#E434AA"/>
<path d="M12.2119 22.0202L11.7769 21.2665L20.1367 16.4393L20.5717 17.193L12.2119 22.0202Z" fill="#E434AA"/>
<path d="M22.1697 17.874C21.5941 18.876 20.3101 19.218 19.3083 18.6424C18.3063 18.066 17.9643 16.782 18.5399 15.78C19.1163 14.778 20.4003 14.436 21.4023 15.0118C22.4101 15.594 22.7521 16.872 22.1697 17.874ZM5.45447 8.22002C4.87809 9.22202 3.59409 9.56402 2.59209 8.9882C1.59009 8.41183 1.24809 7.12802 1.82391 6.12602C2.40028 5.12401 3.68409 4.78201 4.68609 5.35764C5.68809 5.94001 6.03009 7.21802 5.45447 8.22002ZM1.83047 17.874C1.25391 16.872 1.59609 15.594 2.59791 15.0116C3.59991 14.436 4.87791 14.778 5.46028 15.78C6.03591 16.782 5.69391 18.06 4.69191 18.6424C3.68409 19.218 2.40609 18.876 1.83047 17.874ZM18.5457 8.22002C17.9701 7.21802 18.3121 5.94001 19.3141 5.35764C20.3161 4.78201 21.5941 5.12401 22.1763 6.12602C22.7519 7.12802 22.4101 8.40602 21.4081 8.98839C20.4061 9.56402 19.1221 9.22202 18.5457 8.22002ZM12.0001 23.748C11.725 23.7483 11.4526 23.6943 11.1985 23.5891C10.9443 23.484 10.7134 23.3297 10.5189 23.1352C10.3244 22.9408 10.1701 22.7098 10.065 22.4556C9.95984 22.2015 9.90585 21.9291 9.90609 21.654C9.90585 21.379 9.95984 21.1066 10.065 20.8524C10.1701 20.5982 10.3244 20.3673 10.5189 20.1728C10.7134 19.9783 10.9443 19.8241 11.1985 19.7189C11.4526 19.6138 11.725 19.5598 12.0001 19.56C12.2752 19.5598 12.5476 19.6138 12.8017 19.7189C13.0559 19.8241 13.2868 19.9783 13.4813 20.1728C13.6758 20.3673 13.8301 20.5982 13.9352 20.8524C14.0403 21.1066 14.0943 21.379 14.0941 21.654C14.0941 22.8062 13.1581 23.748 12.0001 23.748ZM12.0001 4.44001C11.725 4.44026 11.4526 4.38627 11.1985 4.28112C10.9443 4.17597 10.7134 4.02174 10.5189 3.82725C10.3244 3.63275 10.1701 3.40181 10.065 3.14765C9.95984 2.89348 9.90585 2.62107 9.90609 2.34601C9.90585 2.07096 9.95984 1.79855 10.065 1.54438C10.1701 1.29022 10.3244 1.05928 10.5189 0.864783C10.7134 0.670288 10.9443 0.516055 11.1985 0.410909C11.4526 0.305763 11.725 0.251768 12.0001 0.252015C12.2752 0.251768 12.5476 0.305763 12.8017 0.410909C13.0559 0.516055 13.2868 0.670288 13.4813 0.864783C13.6758 1.05928 13.8301 1.29022 13.9352 1.54438C14.0403 1.79855 14.0943 2.07096 14.0941 2.34601C14.0943 2.62107 14.0403 2.89348 13.9352 3.14765C13.8301 3.40181 13.6758 3.63275 13.4813 3.82725C13.2868 4.02174 13.0559 4.17597 12.8017 4.28112C12.5476 4.38627 12.2752 4.44026 12.0001 4.44001Z" fill="#E434AA"/>
</svg>
