<svg width="24" height="25" viewBox="0 0 24 25" fill="none" xmlns="http://www.w3.org/2000/svg">
<g clip-path="url(#clip0_1_253)">
<path d="M23.9019 13.8987C24.7417 7.32391 20.0985 1.31299 13.5357 0.473145C6.97291 -0.366704 0.937994 4.27646 0.0981452 10.8393C-0.741704 17.4021 3.90146 23.425 10.4643 24.2769C17.0391 25.1167 23.05 20.4735 23.9019 13.8987Z" fill="#FF6C37"/>
<path d="M16.3314 8.0798L11.2683 13.1429L9.84058 11.7151C14.8197 6.73604 15.3116 7.16796 16.3314 8.0798Z" fill="white"/>
<path d="M11.2682 13.2629C11.2322 13.2629 11.2082 13.2509 11.1842 13.2269L9.74449 11.7991C9.6965 11.7511 9.6965 11.6791 9.74449 11.6312C14.8076 6.56807 15.3355 7.04798 16.4033 8.00781C16.4273 8.0318 16.4393 8.0558 16.4393 8.09179C16.4393 8.12779 16.4273 8.15178 16.4033 8.17578L11.3402 13.2269C11.3282 13.2509 11.2922 13.2629 11.2682 13.2629ZM10.0084 11.7151L11.2682 12.9749L16.1513 8.09179C15.2635 7.29993 14.6636 7.05998 10.0084 11.7151Z" fill="#FF6C37"/>
<path d="M12.7201 14.5946L11.3403 13.2149L16.4034 8.15179C17.7592 9.51955 15.7315 11.7391 12.7201 14.5946Z" fill="white"/>
<path d="M12.7199 14.7146C12.6839 14.7146 12.6599 14.7026 12.6359 14.6786L11.2562 13.2989C11.2322 13.2749 11.2322 13.2509 11.2322 13.2149C11.2322 13.1789 11.2442 13.1549 11.2682 13.1309L16.3313 8.06779C16.3793 8.0198 16.4512 8.0198 16.4992 8.06779C16.8112 8.35574 16.9791 8.76367 16.9671 9.18359C16.9431 10.5154 15.4314 12.207 12.8159 14.6786C12.7799 14.7026 12.7439 14.7146 12.7199 14.7146ZM11.5081 13.2149C12.276 13.9947 12.5999 14.3067 12.7199 14.4266C14.7355 12.507 16.6912 10.5393 16.7032 9.18359C16.7152 8.87165 16.5952 8.5597 16.3912 8.31975L11.5081 13.2149Z" fill="#FF6C37"/>
<path d="M9.86446 11.7511L10.8843 12.7709C10.9083 12.7949 10.9083 12.8189 10.8843 12.8429C10.8723 12.8549 10.8723 12.8549 10.8603 12.8549L8.74866 13.3108C8.64068 13.3228 8.54469 13.2508 8.5207 13.1429C8.5087 13.0829 8.5327 13.0229 8.56869 12.9869L9.79247 11.7631C9.81647 11.7391 9.85246 11.7271 9.86446 11.7511Z" fill="white"/>
<path d="M8.71282 13.4308C8.53286 13.4308 8.40088 13.2869 8.40088 13.1069C8.40088 13.0229 8.43687 12.9389 8.49686 12.8789L9.72064 11.6552C9.79263 11.5952 9.88861 11.5952 9.9606 11.6552L10.9804 12.675C11.0524 12.735 11.0524 12.8429 10.9804 12.9149C10.9564 12.9389 10.9324 12.9509 10.8964 12.9629L8.78481 13.4188C8.76081 13.4188 8.73682 13.4308 8.71282 13.4308ZM9.82862 11.8831L8.65283 13.0589C8.62884 13.0829 8.61684 13.1189 8.64084 13.1549C8.65283 13.1909 8.68883 13.2029 8.72482 13.1909L10.7045 12.759L9.82862 11.8831Z" fill="#FF6C37"/>
<path d="M19.0069 5.27231C18.239 4.52844 17.0032 4.55243 16.2594 5.33229C15.5155 6.11215 15.5395 7.33593 16.3194 8.0798C16.9552 8.69169 17.9151 8.79967 18.6709 8.34375L17.3032 6.976L19.0069 5.27231Z" fill="white"/>
<path d="M17.663 8.73968C16.5232 8.73968 15.5994 7.81585 15.5994 6.67606C15.5994 5.53626 16.5232 4.61243 17.663 4.61243C18.1909 4.61243 18.7068 4.81639 19.0907 5.18832C19.1147 5.21232 19.1267 5.23631 19.1267 5.27231C19.1267 5.3083 19.1147 5.3323 19.0907 5.35629L17.471 6.976L18.7428 8.24777C18.7908 8.29576 18.7908 8.36775 18.7428 8.41574C18.7308 8.42774 18.7308 8.42774 18.7188 8.43974C18.4069 8.6317 18.0349 8.73968 17.663 8.73968ZM17.663 4.86438C16.6552 4.86438 15.8393 5.68023 15.8513 6.68805C15.8513 7.69587 16.6672 8.51172 17.675 8.49973C17.9509 8.49973 18.2269 8.43974 18.4788 8.30776L17.2191 7.05999C17.1951 7.03599 17.1831 7.01199 17.1831 6.976C17.1831 6.94001 17.1951 6.91601 17.2191 6.89202L18.8268 5.28431C18.5028 5.00836 18.0949 4.86438 17.663 4.86438Z" fill="#FF6C37"/>
<path d="M19.0429 5.3083L19.0189 5.2843L17.3032 6.976L18.659 8.33175C18.791 8.24777 18.9229 8.15179 19.0309 8.0438C19.7988 7.28794 19.7988 6.06416 19.0429 5.3083Z" fill="white"/>
<path d="M18.6708 8.46375C18.6348 8.46375 18.6108 8.45175 18.5869 8.42775L17.2191 7.06C17.1951 7.036 17.1831 7.01201 17.1831 6.97602C17.1831 6.94002 17.1951 6.91603 17.2191 6.89203L18.9228 5.18834C18.9708 5.14035 19.0428 5.14035 19.0908 5.18834L19.1268 5.21233C19.9306 6.01619 19.9306 7.31195 19.1388 8.12781C19.0188 8.24779 18.8868 8.35577 18.7428 8.43975C18.7068 8.45175 18.6828 8.46375 18.6708 8.46375ZM17.4711 6.97602L18.6828 8.1878C18.7788 8.12781 18.8748 8.04382 18.9468 7.97184C19.6307 7.28796 19.6667 6.17216 19.0068 5.45229L17.4711 6.97602Z" fill="#FF6C37"/>
<path d="M16.5353 8.29573C16.2473 8.00779 15.7794 8.00779 15.4914 8.29573L10.9683 12.8189L11.7241 13.5748L16.5113 9.37554C16.8232 9.11159 16.8472 8.64367 16.5833 8.33173C16.5593 8.31973 16.5473 8.30773 16.5353 8.29573Z" fill="white"/>
<path d="M11.7123 13.6948C11.6763 13.6948 11.6523 13.6828 11.6283 13.6588L10.8724 12.9029C10.8244 12.855 10.8244 12.783 10.8724 12.735L15.3956 8.21179C15.7315 7.87585 16.2714 7.87585 16.6074 8.21179C16.9433 8.54773 16.9433 9.08764 16.6074 9.42358C16.5954 9.43557 16.5834 9.44757 16.5714 9.45957L11.7843 13.6588C11.7723 13.6828 11.7483 13.6948 11.7123 13.6948ZM11.1364 12.819L11.7243 13.4069L16.4274 9.2796C16.6914 9.06364 16.7154 8.66771 16.4994 8.40376C16.2834 8.13981 15.8875 8.11581 15.6236 8.33177C15.6116 8.34377 15.5996 8.35577 15.5756 8.36777L11.1364 12.819Z" fill="#FF6C37"/>
<path d="M7.50099 17.966C7.45299 17.99 7.429 18.038 7.441 18.086L7.64496 18.9498C7.69295 19.0698 7.62096 19.2138 7.48899 19.2498C7.39301 19.2858 7.28503 19.2498 7.22504 19.1778L5.90527 17.87L10.2125 13.5628L11.7002 13.5868L12.708 14.5946C12.4681 14.7986 11.0164 16.2023 7.50099 17.966Z" fill="white"/>
<path d="M7.40504 19.3697C7.30906 19.3697 7.21307 19.3338 7.15308 19.2618L5.84532 17.954C5.82132 17.93 5.80933 17.906 5.80933 17.87C5.80933 17.834 5.82132 17.81 5.84532 17.786L10.1525 13.4788C10.1765 13.4548 10.2125 13.4428 10.2365 13.4428L11.7243 13.4668C11.7603 13.4668 11.7843 13.4788 11.8082 13.5028L12.8161 14.5106C12.8401 14.5346 12.8521 14.5706 12.8521 14.6066C12.8521 14.6426 12.8401 14.6666 12.8041 14.6906L12.7201 14.7626C11.4483 15.8784 9.72062 16.9942 7.57301 18.062L7.77697 18.9138C7.81297 19.0698 7.74098 19.2378 7.597 19.3218C7.52502 19.3577 7.46503 19.3697 7.40504 19.3697ZM6.08528 17.87L7.32105 19.0938C7.35705 19.1538 7.42903 19.1778 7.48902 19.1418C7.54901 19.1058 7.57301 19.0338 7.53702 18.9738L7.33305 18.11C7.30906 18.002 7.35705 17.906 7.45303 17.858C9.57665 16.7902 11.2923 15.6864 12.5521 14.5946L11.6643 13.7068L10.2845 13.6828L6.08528 17.87Z" fill="#FF6C37"/>
<path d="M4.88548 18.9019L5.91729 17.8701L7.45301 19.4058L5.00545 19.2378C4.89747 19.2258 4.82549 19.1298 4.83749 19.0218C4.83749 18.9739 4.84948 18.9259 4.88548 18.9019Z" fill="white"/>
<path d="M7.45292 19.5137L4.99336 19.3457C4.8134 19.3337 4.69342 19.1778 4.70541 18.9978C4.71741 18.9258 4.74141 18.8538 4.8014 18.8058L5.83321 17.774C5.8812 17.726 5.95319 17.726 6.00118 17.774L7.53691 19.3098C7.5729 19.3457 7.5849 19.3937 7.5609 19.4417C7.53691 19.4897 7.50091 19.5137 7.45292 19.5137ZM5.9172 18.038L4.96937 18.9858C4.93337 19.0098 4.93337 19.0698 4.96937 19.0938C4.98137 19.1058 4.99336 19.1178 5.01736 19.1178L7.14098 19.2618L5.9172 18.038Z" fill="#FF6C37"/>
<path d="M9.79259 14.1147C9.7206 14.1147 9.67261 14.0548 9.67261 13.9948C9.67261 13.9588 9.68461 13.9348 9.7086 13.9108L10.8724 12.747C10.9204 12.699 10.9924 12.699 11.0404 12.747L11.7962 13.5029C11.8322 13.5388 11.8442 13.5748 11.8322 13.6228C11.8202 13.6588 11.7842 13.6948 11.7362 13.7068L9.81658 14.1147C9.80458 14.1147 9.79259 14.1147 9.79259 14.1147ZM10.9564 12.9989L10.1645 13.7908L11.4603 13.5149L10.9564 12.9989Z" fill="#FF6C37"/>
<path d="M11.7002 13.5868L10.3804 13.8748C10.2845 13.8988 10.1885 13.8388 10.1645 13.7428C10.1525 13.6828 10.1645 13.6228 10.2125 13.5748L10.9443 12.843L11.7002 13.5868Z" fill="white"/>
<path d="M10.3563 13.9948C10.1884 13.9948 10.0564 13.8628 10.0564 13.6948C10.0564 13.6108 10.0924 13.5388 10.1404 13.4789L10.8722 12.747C10.9202 12.699 10.9922 12.699 11.0402 12.747L11.7961 13.5029C11.8321 13.5388 11.8441 13.5748 11.8321 13.6228C11.8201 13.6588 11.7841 13.6948 11.7361 13.7068L10.4163 13.9948C10.3923 13.9948 10.3683 13.9948 10.3563 13.9948ZM10.9562 12.9989L10.3084 13.6468C10.2844 13.6708 10.2844 13.6948 10.2964 13.7188C10.3084 13.7428 10.3323 13.7548 10.3683 13.7548L11.4721 13.5149L10.9562 12.9989Z" fill="#FF6C37"/>
<path d="M19.0549 6.4601C19.0309 6.38811 18.9469 6.35212 18.8749 6.37612C18.8029 6.40011 18.7669 6.4841 18.7909 6.55608C18.7909 6.56808 18.8029 6.58008 18.8029 6.59208C18.8749 6.73605 18.8509 6.91602 18.7549 7.048C18.7069 7.10798 18.7189 7.19197 18.7669 7.23996C18.8269 7.28795 18.9109 7.27595 18.9589 7.21597C19.1388 6.98801 19.1748 6.70006 19.0549 6.4601Z" fill="#FF6C37"/>
</g>
<defs>
<clipPath id="clip0_1_253">
<rect width="24" height="24.75" fill="white"/>
</clipPath>
</defs>
</svg>
