<svg width="24" height="24" viewBox="0 0 24 24" fill="none" xmlns="http://www.w3.org/2000/svg">
<g clip-path="url(#clip0_1_254)">
<path d="M4.78883 3.08038C4.78883 6.29618 6.78601 8.22566 10.7804 9.24117L15.0117 10.2228C18.8029 11.103 21.1048 13.2694 21.1048 16.7898C21.1386 18.3131 20.6309 19.8025 19.7169 21.0211C19.7169 17.5007 17.889 15.6051 13.5223 14.4541L9.35865 13.5063C6.00745 12.7616 3.43481 10.9675 3.43481 7.14244C3.43481 5.68687 3.90872 4.2313 4.78883 3.08038Z" fill="#F04939"/>
<path d="M17.1104 15.9097C18.9045 17.0606 19.7169 18.6855 19.7169 21.0212C18.1936 22.9506 15.5872 24 12.5068 24C7.32764 24 3.63794 21.4274 2.85938 16.9929H7.8354C8.47856 19.024 10.1711 19.9718 12.4729 19.9718C15.2148 20.0056 17.0766 18.5162 17.1104 15.9097ZM4.78885 3.04654C6.24442 1.15092 8.74936 0 11.7959 0C17.1104 0 20.157 2.80959 20.9355 6.73625H16.1288C15.5872 5.17913 14.267 3.96051 11.8636 3.96051C9.25712 3.99436 7.49689 5.48378 7.39534 7.85331C5.65103 6.89134 4.72115 5.00987 4.78885 3.04654Z" fill="#F37368"/>
</g>
<defs>
<clipPath id="clip0_1_254">
<rect width="24" height="24" fill="white"/>
</clipPath>
</defs>
</svg>
